<?xml version="1.0" standalone="no"?>
<!DOCTYPE svg PUBLIC "-//W3C//DTD SVG 1.1//EN" "http://www.w3.org/Graphics/SVG/1.1/DTD/svg11.dtd" >
<svg>
<metadata>
Created by FontForge 20110222 at Tue Jul  8 13:23:36 2014
 By Orthosie Webhosting
251 Dutch Design: Albert-Jan Pool, 1995. Published by FontShop International FontFont release 15
</metadata>
<defs>
<font id="DIN-Bold" horiz-adv-x="1112" >
  <font-face 
    font-family="DIN-Bold"
    font-weight="400"
    font-stretch="normal"
    units-per-em="2048"
    panose-1="2 11 5 0 0 0 0 0 0 0"
    ascent="1645"
    descent="-403"
    x-height="1067"
    cap-height="1458"
    bbox="-236 -422 2372 2079"
    underline-thickness="87"
    underline-position="-92"
    unicode-range="U+0001-F002"
  />
<missing-glyph horiz-adv-x="1536" 
d="M256 0v1280h1024v-1280h-1024zM1247 33v1214h-958v-1214h958z" />
    <glyph glyph-name=".notdef" horiz-adv-x="1536" 
d="M256 0v1280h1024v-1280h-1024zM1247 33v1214h-958v-1214h958z" />
    <glyph glyph-name=".null" horiz-adv-x="0" 
 />
    <glyph glyph-name="nonmarkingreturn" horiz-adv-x="0" 
 />
    <glyph glyph-name="Eth" horiz-adv-x="1397" 
d="M1276 729v-63q0 -142 -7 -217t-34.5 -145t-87.5 -134q-46 -52 -109 -90.5t-139 -59t-160 -20.5h-522v629h-141v217h141v612h526q254 0 404 -172q84 -94 106.5 -192.5t22.5 -284.5v-80zM991 725q0 191 -9.5 261t-41.5 114q-75 106 -223 106h-215v-360h237v-217h-237v-377
h215q154 0 227 108q30 43 38.5 104.5t8.5 260.5z" />
    <glyph glyph-name="eth" 
d="M995 520q0 -149 -24.5 -241t-93.5 -164q-123 -127 -322 -127t-322 127q-67 70 -92.5 163t-25.5 242q0 65 5.5 127.5t18.5 109t37 89.5t57 78q66 69 183 100q52 14 155 14l-69 127h-234v187h140l-64 123h285l63 -123h189v-187h-95l82 -157q75 -143 101 -239.5t26 -248.5z
M729 520q0 95 -10.5 153.5t-44.5 92.5q-45 45 -119 45q-72 0 -117 -45q-35 -37 -46 -97t-11 -149q0 -88 11 -149t46 -99q47 -45 117 -45q72 0 119 45q34 35 44.5 94.5t10.5 153.5z" />
    <glyph glyph-name="Lslash" horiz-adv-x="1214" 
d="M1153 0h-946v500l-131 -84v237l131 84v721h285v-543l262 166v-235l-262 -166v-426h661v-254z" />
    <glyph glyph-name="lslash" horiz-adv-x="688" 
d="M633 0h-152q-103 0 -173 43t-103 112.5t-33 149.5v313l-111 -67v223l111 70v614h266v-454l123 75v-223l-123 -78v-456q0 -97 92 -97h103v-225z" />
    <glyph glyph-name="Scaron" horiz-adv-x="1210" 
d="M1112 430q0 -137 -70.5 -237.5t-195 -152.5t-275.5 -52q-86 0 -160 10.5t-135.5 31.5t-122 58.5t-114.5 91.5l184 185q122 -123 352 -123q126 0 192.5 46.5t66.5 133.5q0 80 -46 123q-41 38 -129 51l-176 25q-186 27 -282 120q-105 105 -105 287q0 198 137.5 320
t370.5 122q154 0 267 -40.5t204 -129.5l-180 -178q-62 59 -135.5 80t-163.5 21q-109 0 -167 -52t-58 -133q0 -64 43 -104q47 -45 135 -57l172 -25q186 -25 278 -113q113 -106 113 -309zM979 1945l-271 -346h-212l-271 346h207l170 -184l170 184h207z" />
    <glyph glyph-name="scaron" horiz-adv-x="1026" 
d="M952 336q0 -170 -126.5 -259t-325.5 -89q-97 0 -172 11t-147 44.5t-136 97.5l174 174q100 -100 285 -100q76 0 132 27.5t56 83.5q0 87 -112 98l-168 16q-152 16 -232 87t-80 212q0 159 119.5 249.5t292.5 90.5q275 0 408 -125l-164 -166q-80 72 -248 72q-75 0 -113.5 -29
t-38.5 -73q0 -83 111 -92l168 -17q105 -11 175.5 -50t106 -106.5t35.5 -156.5zM889 1583l-271 -346h-212l-271 346h207l170 -184l170 184h207z" />
    <glyph glyph-name="Yacute" horiz-adv-x="1171" 
d="M1165 1458l-438 -860v-598h-283v598l-438 860h309l273 -588l268 588h309zM883 1947l-233 -348h-179l131 348h281z" />
    <glyph glyph-name="yacute" horiz-adv-x="1012" 
d="M1004 1067l-457 -1239q-36 -93 -80 -137q-41 -42 -99.5 -62t-129.5 -20h-105v239h62q56 0 85 20.5t48 76.5l45 131l-365 991h281l221 -659l213 659h281zM799 1585l-233 -348h-179l131 348h281z" />
    <glyph glyph-name="Thorn" horiz-adv-x="1296" 
d="M1217 737q0 -94 -32.5 -175.5t-95 -144t-153.5 -98.5t-201 -36h-280v-283h-285v1458h285v-268h280q110 0 201 -35.5t153.5 -97.5t95 -144t32.5 -176zM932 737q0 60 -26.5 105t-74.5 69.5t-110 24.5h-266v-399h266q62 0 110.5 25t74.5 70t26 105z" />
    <glyph glyph-name="thorn" horiz-adv-x="1151" 
d="M1042 535q0 -166 -19 -273.5t-89 -177.5q-45 -44 -113.5 -70t-146.5 -26q-85 0 -146 25t-112 81v-485h-266v1849h266v-485q94 106 258 106q78 0 146.5 -25.5t113.5 -70.5q70 -70 89 -176.5t19 -271.5zM776 535q0 152 -35 228.5t-145 76.5q-77 0 -116 -38t-51.5 -102
t-12.5 -165q0 -102 12.5 -166.5t52 -103t115.5 -38.5q110 0 145 77.5t35 230.5z" />
    <glyph glyph-name="Zcaron" horiz-adv-x="1122" 
d="M1040 0h-958v229l623 975h-596v254h931v-225l-624 -979h624v-254zM944 1945l-271 -346h-212l-271 346h207l170 -184l170 184h207z" />
    <glyph glyph-name="zcaron" horiz-adv-x="979" 
d="M889 0h-813v203l473 624h-447v240h787v-203l-479 -624h479v-240zM873 1583l-271 -346h-212l-271 346h207l170 -184l170 184h207z" />
    <glyph glyph-name="DC4" horiz-adv-x="672" 
d="M633 123h-80v-123h-156v123h-358v151l301 600h176l-301 -600h182v164h156v-164h80v-151z" />
    <glyph glyph-name="onehalf" horiz-adv-x="1765" 
d="M1677 0h-557v174l320 350q24 25 35.5 47t11.5 50q0 41 -23.5 64.5t-64.5 23.5q-84 0 -84 -91h-195q0 124 79.5 194.5t199.5 70.5q79 0 143 -32t99.5 -91.5t35.5 -138.5q0 -62 -24 -106t-82 -107l-215 -234h321v-174zM1270 1458l-690 -1458h-207l690 1458h207zM457 584
h-195v657l-184 -160v217l184 160h195v-874z" />
    <glyph glyph-name="onequarter" horiz-adv-x="1712" 
d="M1630 117h-67v-117h-185v117h-360v182l293 575h211l-295 -575h151v127h185v-127h67v-182zM1280 1458l-690 -1458h-209l690 1458h209zM457 584h-195v657l-184 -160v217l184 160h195v-874z" />
    <glyph glyph-name="onesuperior" horiz-adv-x="598" 
d="M457 584h-195v657l-184 -160v217l184 160h195v-874z" />
    <glyph glyph-name="threequarters" horiz-adv-x="1772" 
d="M1690 117h-68v-117h-184v117h-361v182l293 575h211l-295 -575h152v127h184v-127h68v-182zM1346 1458l-691 -1458h-209l691 1458h209zM666 844q0 -129 -83 -199t-206 -70q-120 0 -204.5 68t-84.5 203h193q0 -46 27.5 -72t68.5 -26q45 0 70.5 27.5t25.5 74.5
q0 43 -26.5 70.5t-73.5 27.5h-27v166h27q44 0 67 26.5t23 61.5q0 28 -12 49t-31.5 31t-42.5 10q-24 0 -43.5 -10t-31 -29t-11.5 -47h-193q0 119 79.5 189.5t199.5 70.5q79 0 142.5 -32.5t99.5 -91.5t36 -134q0 -115 -92 -172q103 -65 103 -192z" />
    <glyph glyph-name="threesuperior" horiz-adv-x="754" 
d="M666 844q0 -129 -83 -199t-206 -70q-120 0 -204.5 68t-84.5 203h193q0 -46 27.5 -72t68.5 -26q45 0 70.5 27.5t25.5 74.5q0 43 -26.5 70.5t-73.5 27.5h-27v166h27q44 0 67 26.5t23 61.5q0 28 -12 49t-31.5 31t-42.5 10q-24 0 -43.5 -10t-31 -29t-11.5 -47h-193
q0 119 79.5 189.5t199.5 70.5q79 0 142.5 -32.5t99.5 -91.5t36 -134q0 -115 -92 -172q103 -65 103 -192z" />
    <glyph glyph-name="twosuperior" horiz-adv-x="733" 
d="M645 584h-557v174l320 350q45 49 45 96q0 40 -23 64t-63 24q-86 0 -86 -90h-193q0 124 79 194t200 70q78 0 142 -31.5t100 -90.5t36 -140q0 -62 -25 -107t-81 -106l-215 -233h321v-174z" />
    <glyph glyph-name="brokenbar" horiz-adv-x="723" 
d="M492 893h-267v717h267v-717zM492 -152h-267v717h267v-717z" />
    <glyph glyph-name="minus" 
d="M1010 461h-908v248h908v-248z" />
    <glyph glyph-name="multiply" 
d="M1012 297l-168 -168l-289 289l-287 -289l-168 168l289 289l-289 288l168 168l287 -288l289 288l168 -168l-289 -288z" />
    <glyph glyph-name="space" unicode=" " horiz-adv-x="475" 
 />
    <glyph glyph-name="exclam" unicode="!" horiz-adv-x="711" 
d="M557 1458l-63 -1001h-201l-64 1001h328zM535 0h-283v272h283v-272z" />
    <glyph glyph-name="quotedbl" unicode="&#x22;" horiz-adv-x="950" 
d="M809 1026h-248v432h248v-432zM389 1026h-250v432h250v-432z" />
    <glyph glyph-name="numbersign" unicode="#" horiz-adv-x="1415" 
d="M1317 860h-182l-33 -221h141v-250h-182l-62 -389h-280l63 389h-237l-62 -389h-280l61 389h-141v250h182l33 221h-143v248h182l57 362h281l-58 -362h238l57 362h279l-55 -362h141v-248zM854 860h-236l-34 -221h237z" />
    <glyph glyph-name="dollar" unicode="$" horiz-adv-x="1268" 
d="M1169 430q0 -122 -56 -215t-156 -148.5t-228 -70.5v-229h-207v221q-101 3 -185 23t-160 63t-138 106l184 185q116 -116 326 -123v370l-66 9q-184 24 -282 122q-105 105 -105 285q0 88 28.5 163t83.5 133t135.5 95t178.5 47v185h207v-183q126 -8 225 -48.5t179 -119.5
l-181 -178q-86 85 -252 99v-357l78 -12q188 -30 279 -115q112 -105 112 -307zM549 877v342q-86 -12 -132 -62t-46 -119q0 -64 43 -104q46 -44 135 -57zM891 422q0 81 -45 123q-26 26 -57 35t-89 18v-352q92 10 141.5 56t49.5 120z" />
    <glyph glyph-name="percent" unicode="%" horiz-adv-x="1737" 
d="M1630 268q0 -133 -85.5 -206.5t-211.5 -73.5q-127 0 -212 74t-85 206v203q0 132 84.5 206.5t212.5 74.5q81 0 149 -32.5t108 -96t40 -152.5v-203zM1319 1458l-690 -1458h-209l690 1458h209zM700 987q0 -133 -85.5 -206.5t-211.5 -73.5q-127 0 -212 74t-85 206v203
q0 132 85 206t212 74q126 0 211.5 -73.5t85.5 -206.5v-203zM1438 276v187q0 57 -27.5 87t-77.5 30q-104 0 -104 -117v-187q0 -116 104 -116q50 0 77.5 30t27.5 86zM508 995v187q0 57 -27 86.5t-78 29.5q-104 0 -104 -116v-187q0 -56 27.5 -86t76.5 -30q50 0 77.5 30t27.5 86
z" />
    <glyph glyph-name="ampersand" unicode="&#x26;" horiz-adv-x="1477" 
d="M1425 0h-338l-106 127q-53 -42 -95.5 -69t-113 -48.5t-168.5 -21.5q-155 0 -264 52.5t-163 153t-54 236.5q0 126 72 219.5t190 171.5q-39 45 -70 88t-53 99.5t-22 121.5q0 153 104.5 246.5t284.5 93.5q113 0 197 -44t129.5 -123t45.5 -177q0 -145 -149 -254
q-7 -6 -24.5 -18.5t-37.5 -26.5t-42 -30l245 -291q68 91 74 256h252q-8 -149 -45 -259.5t-111 -193.5zM750 1124q0 53 -33 86t-88 33q-57 0 -89 -32.5t-32 -86.5q0 -35 20.5 -66t75.5 -97q14 7 33 20t29 20q84 59 84 123zM819 315l-291 342q-74 -50 -110.5 -100.5
t-36.5 -122.5q0 -89 63.5 -147t157.5 -58q63 0 114.5 20.5t102.5 65.5z" />
    <glyph glyph-name="quotesingle" unicode="'" horiz-adv-x="530" 
d="M391 1026h-252v432h252v-432z" />
    <glyph glyph-name="parenleft" unicode="(" horiz-adv-x="688" 
d="M575 -14l-178 -179q-22 23 -61 63t-65.5 72.5t-53.5 75.5q-33 58 -43 122.5t-10 142.5v893q0 172 53 264q22 37 50 71.5t68 75.5t62 64l178 -178q-83 -84 -114 -138.5t-31 -171.5v-868q0 -117 31 -172q15 -25 31 -47t34.5 -41t48.5 -49z" />
    <glyph glyph-name="parenright" unicode=")" horiz-adv-x="688" 
d="M524 283q0 -85 -10.5 -147.5t-42.5 -117.5q-29 -49 -71 -96.5t-109 -114.5l-180 181q53 53 74 77.5t40 57.5q31 55 31 172v868q0 117 -31 172q-22 38 -48.5 68t-65.5 67l180 181q67 -67 108.5 -113.5t71.5 -97.5q53 -92 53 -264v-893z" />
    <glyph glyph-name="asterisk" unicode="*" horiz-adv-x="1012" 
d="M901 942l-94 -162l-215 135l8 -256h-188l10 256l-217 -135l-92 162l225 119l-225 119l92 163l217 -137l-10 256h188l-8 -256l215 137l94 -163l-227 -119z" />
    <glyph glyph-name="plus" unicode="+" 
d="M1010 442h-328v-327h-250v327h-330v250h330v328h250v-328h328v-250z" />
    <glyph glyph-name="comma" unicode="," horiz-adv-x="571" 
d="M432 -113l-293 -225v629h293v-404z" />
    <glyph glyph-name="hyphen" unicode="-" horiz-adv-x="872" 
d="M752 461h-631v248h631v-248z" />
    <glyph glyph-name="period" unicode="." horiz-adv-x="584" 
d="M444 0h-305v303h305v-303z" />
    <glyph glyph-name="slash" unicode="/" horiz-adv-x="825" 
d="M834 1610l-584 -1762h-250l584 1762h250z" />
    <glyph glyph-name="zero" unicode="0" 
d="M999 422q0 -136 -59 -233.5t-161 -149t-222 -51.5q-89 0 -169.5 29t-143 85.5t-97 138t-34.5 181.5v614q0 101 34.5 181.5t97 138t143 86t169.5 28.5q120 0 222 -51.5t161 -149t59 -233.5v-614zM733 424v608q0 91 -48 145t-128 54q-78 0 -128 -54.5t-50 -144.5v-608
q0 -90 50 -143.5t128 -53.5q53 0 92.5 24t61.5 69t22 104z" />
    <glyph glyph-name="one" unicode="1" 
d="M774 0h-266v1171l-297 -258v287l297 258h266v-1458z" />
    <glyph glyph-name="two" unicode="2" 
d="M1008 0h-887v240l545 632q40 47 57.5 86.5t17.5 90.5q0 53 -20.5 94.5t-60 64.5t-95.5 23q-75 0 -126.5 -44.5t-51.5 -142.5h-266q0 130 58 227t159.5 148t226.5 51q97 0 178.5 -29t140.5 -83.5t91.5 -133t32.5 -177.5q0 -97 -35.5 -166t-120.5 -168l-408 -473h564v-240z
" />
    <glyph glyph-name="three" unicode="3" 
d="M1014 422q0 -141 -62.5 -239t-168 -146.5t-232.5 -48.5q-123 0 -228.5 45.5t-170.5 142.5t-66 242h266q3 -92 59 -141.5t140 -49.5q88 0 142.5 53.5t54.5 149.5q0 93 -54 147t-151 54h-39v231h39q93 0 138.5 50.5t45.5 131.5q0 89 -51 138t-127 49t-126 -47t-54 -129
h-267q6 191 132 303t315 112q126 0 228 -53t159 -149t57 -215q0 -211 -168 -299q189 -101 189 -332z" />
    <glyph glyph-name="four" unicode="4" 
d="M1049 207h-134v-207h-256v207h-596v252l500 999h291l-500 -999h305v272h256v-272h134v-252z" />
    <glyph glyph-name="five" unicode="5" 
d="M1012 492q0 -132 -27 -220.5t-102 -165.5q-120 -118 -322 -118q-108 0 -190 32.5t-135 83.5q-62 63 -87 135.5t-32 168.5h266q22 -181 178 -181q79 0 127 47q57 58 57 218q0 130 -42 196t-136 66q-136 0 -176 -119h-244v823h832v-239h-590v-314q32 30 90.5 52t128.5 22
q173 0 273 -98q53 -53 82.5 -117t39 -129t9.5 -143z" />
    <glyph glyph-name="six" unicode="6" 
d="M1008 442q0 -138 -59 -241.5t-163 -158t-233 -54.5q-130 0 -233 52.5t-162.5 156t-59.5 241.5q0 87 30 173t93 216l307 631h291l-303 -602q45 18 109 18q98 0 187 -52.5t142.5 -152t53.5 -227.5zM741 440q0 97 -51 155t-137 58q-53 0 -96.5 -25t-67.5 -74.5t-24 -113.5
t24 -113.5t67.5 -74.5t96.5 -25t96.5 25t67.5 74.5t24 113.5z" />
    <glyph glyph-name="seven" unicode="7" 
d="M1030 1219l-473 -1219h-289l473 1219h-385v-230h-254v469h928v-239z" />
    <glyph glyph-name="eight" unicode="8" 
d="M1024 424q0 -137 -61.5 -235.5t-168.5 -149.5t-237 -51t-237 51t-168.5 149.5t-61.5 235.5q0 204 182 328q-163 114 -163 303q0 125 60 219.5t162 145t226 50.5t226 -50.5t161.5 -145t59.5 -219.5q0 -105 -47 -179.5t-117 -123.5q184 -124 184 -328zM737 1047
q0 78 -50.5 131t-129.5 53q-77 0 -129.5 -53.5t-52.5 -130.5q0 -79 53 -132t129 -53q79 0 129.5 52.5t50.5 132.5zM758 428q0 56 -26.5 102.5t-73.5 73.5t-101 27q-86 0 -143.5 -59.5t-57.5 -143.5q0 -85 58 -143t143 -58t143 58t58 143z" />
    <glyph glyph-name="nine" unicode="9" 
d="M1014 1020q0 -89 -31 -178.5t-90 -210.5l-309 -631h-289l303 602q-45 -18 -109 -18q-98 0 -187.5 52.5t-143.5 151t-54 228.5q0 107 33.5 191t96 143t144.5 89.5t181 30.5q130 0 233 -52.5t162.5 -155t59.5 -242.5zM748 1018q0 100 -52 156.5t-137 56.5q-84 0 -136 -56.5
t-52 -156.5q0 -97 52 -155t136 -58q53 0 97 25.5t68 74t24 113.5z" />
    <glyph glyph-name="colon" unicode=":" horiz-adv-x="633" 
d="M494 555h-304v303h304v-303zM494 0h-304v303h304v-303z" />
    <glyph glyph-name="semicolon" unicode=";" horiz-adv-x="633" 
d="M494 555h-304v303h304v-303zM487 -113l-290 -225v629h290v-404z" />
    <glyph glyph-name="less" unicode="&#x3c;" horiz-adv-x="2103" 
d="M1999 459h-1440l668 -664h-336l-789 789l789 788h336l-668 -661h1440v-252z" />
    <glyph glyph-name="equal" unicode="=" 
d="M1010 682h-908v250h908v-250zM1010 238h-908v249h908v-249z" />
    <glyph glyph-name="greater" unicode="&#x3e;" horiz-adv-x="2103" 
d="M2001 584l-789 -789h-335l667 664h-1442v252h1442l-667 661h335z" />
    <glyph glyph-name="question" unicode="?" horiz-adv-x="1071" 
d="M997 1061q0 -70 -25.5 -130.5t-74.5 -125.5l-152 -201q-36 -47 -36 -104v-43h-267v61q0 64 18.5 111.5t59.5 101.5l152 195q59 77 59 137q0 73 -45 120.5t-121 47.5q-78 0 -121 -47.5t-43 -122.5h-266q0 124 57 216.5t155 142.5t218 50q119 0 217.5 -49t156.5 -142
t58 -218zM717 0h-283v272h283v-272z" />
    <glyph glyph-name="at" unicode="@" horiz-adv-x="1552" 
d="M1434 -6l-248 6v94q-53 -56 -109 -81t-137 -25q-162 0 -258 102q-59 64 -77.5 147.5t-18.5 235.5q0 104 7 168.5t27 115.5t60 95q93 104 258 104q77 0 136 -24.5t106 -75.5v92q0 137 -72 209t-205 72h-254q-66 0 -115 -15.5t-90 -56.5t-56 -89.5t-15 -119.5v-592
q0 -74 19 -115t71 -87l-184 -185q-92 84 -127 161t-35 212v612q0 82 12.5 153t40 129t74.5 105q67 68 159 96.5t226 28.5h295q128 0 223 -28t162 -97q67 -67 96 -162t29 -225v-960zM1180 473q0 130 -38 196t-132 66q-93 0 -130.5 -65.5t-37.5 -196.5t38 -197.5t130 -66.5
q93 0 131.5 67.5t38.5 196.5z" />
    <glyph glyph-name="A" unicode="A" horiz-adv-x="1307" 
d="M1296 0h-297l-86 258h-518l-88 -258h-297l531 1458h223zM838 498l-179 530l-184 -530h363z" />
    <glyph glyph-name="B" unicode="B" horiz-adv-x="1348" 
d="M1227 420q0 -98 -33 -178t-92 -133t-141 -81t-181 -28h-610v1458h586q139 0 241.5 -50t155.5 -142t53 -217q0 -58 -16 -106.5t-44 -89t-59 -66t-61 -39.5q82 -37 141.5 -116t59.5 -212zM922 1036q0 51 -22.5 89t-63.5 58.5t-103 20.5h-278v-336h278q90 0 139.5 45.5
t49.5 122.5zM942 434q0 79 -48.5 128.5t-141.5 49.5h-297v-358h297q92 0 141 50.5t49 129.5z" />
    <glyph glyph-name="C" unicode="C" horiz-adv-x="1270" 
d="M1194 449q-25 -149 -99.5 -252.5t-187 -156t-250.5 -52.5q-232 0 -393 159q-68 70 -98.5 154.5t-37.5 176t-7 251.5t7 251.5t37.5 176t98.5 154.5q161 159 393 159q210 0 355 -118t182 -342h-289q-23 95 -83.5 151t-162.5 56q-116 0 -182 -76q-29 -34 -43.5 -74.5
t-21 -121t-6.5 -216.5t6 -216t21 -121t44 -75q65 -75 182 -75q102 0 162.5 56t83.5 151h289z" />
    <glyph glyph-name="D" unicode="D" horiz-adv-x="1350" 
d="M1229 735v-108q0 -170 -27.5 -282.5t-120.5 -205.5q-71 -71 -170 -105t-215 -34h-526v1458h526q117 0 215 -33.5t170 -105.5q93 -92 120.5 -201t27.5 -274v-109zM944 735q0 117 -4 185t-17.5 115t-39.5 79q-73 90 -213 90h-215v-950h215q71 0 123 22.5t90 67.5
q20 24 32 58.5t17.5 73.5t8.5 97.5t3 161.5z" />
    <glyph glyph-name="E" unicode="E" horiz-adv-x="1239" 
d="M1130 0h-960v1458h960v-254h-675v-342h575v-254h-575v-354h675v-254z" />
    <glyph glyph-name="F" unicode="F" horiz-adv-x="1208" 
d="M1130 1204h-675v-358h575v-254h-575v-592h-285v1458h960v-254z" />
    <glyph glyph-name="G" unicode="G" horiz-adv-x="1327" 
d="M1208 598q0 -107 -13.5 -186t-44 -142t-81.5 -116q-85 -88 -186.5 -127t-225.5 -39q-232 0 -393 159q-68 70 -98.5 154.5t-37.5 176t-7 251.5t7 251.5t37.5 176t98.5 154.5q81 79 177 119t216 40q162 0 278 -62.5t183.5 -169.5t87.5 -234h-286q-51 213 -263 213
q-114 0 -182 -78q-29 -34 -43 -73.5t-20 -120t-6 -216.5t6 -216.5t20 -121t43 -74.5q65 -75 182 -75q129 0 203 82q66 74 66 194v55h-269v238h551v-213z" />
    <glyph glyph-name="H" unicode="H" horiz-adv-x="1403" 
d="M1233 0h-285v610h-493v-610h-285v1458h285v-596h493v596h285v-1458z" />
    <glyph glyph-name="I" unicode="I" horiz-adv-x="625" 
d="M455 0h-285v1458h285v-1458z" />
    <glyph glyph-name="J" unicode="J" horiz-adv-x="1047" 
d="M895 479q0 -117 -40.5 -209t-112.5 -154.5t-165 -95t-196 -32.5q-120 0 -207 34.5t-168 114.5l189 187q41 -41 82 -61.5t104 -20.5q107 0 168 63.5t61 186.5v966h285v-979z" />
    <glyph glyph-name="K" unicode="K" horiz-adv-x="1362" 
d="M1350 0h-332l-375 664l-188 -226v-438h-285v1458h285v-635l514 635h346l-484 -579z" />
    <glyph glyph-name="L" unicode="L" horiz-adv-x="1178" 
d="M1116 0h-946v1458h285v-1204h661v-254z" />
    <glyph glyph-name="M" unicode="M" horiz-adv-x="1661" 
d="M1491 0h-285v850l-278 -553h-193l-280 553v-850h-285v1458h281l380 -788l379 788h281v-1458z" />
    <glyph glyph-name="N" unicode="N" horiz-adv-x="1456" 
d="M1286 0h-254l-577 895v-895h-285v1458h254l577 -893v893h285v-1458z" />
    <glyph glyph-name="O" unicode="O" horiz-adv-x="1319" 
d="M1198 729q0 -121 -2.5 -191t-16.5 -143.5t-43.5 -134t-82.5 -113.5q-161 -159 -394 -159q-121 0 -217.5 40t-177.5 119q-68 70 -98.5 154.5t-37.5 176t-7 251.5t7 251.5t37.5 176t98.5 154.5q81 79 177.5 119t217.5 40q233 0 394 -159q67 -69 99 -154t39 -176.5t7 -251.5
zM913 729q0 136 -6.5 216t-21 120t-43.5 74q-29 35 -77.5 56.5t-105.5 21.5q-54 0 -103 -21t-81 -57q-29 -34 -43 -73.5t-20 -120t-6 -216.5t6 -216t20 -120t43 -74q67 -77 184 -77q116 0 183 77q29 34 43.5 74.5t21 119.5t6.5 216z" />
    <glyph glyph-name="P" unicode="P" horiz-adv-x="1286" 
d="M1217 1004q0 -93 -32.5 -175.5t-95 -145t-153.5 -98.5t-201 -36h-280v-549h-285v1458h565q110 0 200 -35t153.5 -98t96 -145t32.5 -176zM932 1004q0 58 -26.5 104t-74.5 71t-110 25h-266v-399h266q62 0 110 24.5t74.5 69.5t26.5 105z" />
    <glyph glyph-name="Q" unicode="Q" horiz-adv-x="1317" 
d="M1233 88l-150 -149l-129 129q-121 -80 -295 -80q-121 0 -217.5 40t-177.5 119q-68 70 -98.5 154.5t-37.5 176t-7 251.5t7 251.5t37.5 176t98.5 154.5q81 79 177.5 119t217.5 40q233 0 394 -159q67 -69 99 -154t39 -176.5t7 -251.5q0 -139 -4.5 -220t-23.5 -156.5
t-62 -139.5zM913 729q0 136 -6.5 216t-21 120t-43.5 74q-29 35 -77.5 56.5t-105.5 21.5q-54 0 -103 -21t-81 -57q-29 -34 -43 -73.5t-20 -120t-6 -216.5t6 -216t20 -120t43 -74q67 -77 184 -77q56 0 95 26l-127 125l151 150l109 -109q26 76 26 295z" />
    <glyph glyph-name="R" unicode="R" horiz-adv-x="1339" 
d="M1274 0h-330l-285 582h-204v-582h-285v1458h571q145 0 252 -59.5t164 -161.5t57 -225q0 -145 -74 -242.5t-192 -140.5zM930 1012q0 56 -25.5 99t-73 68t-108.5 25h-268v-385h268q93 0 150 53t57 140z" />
    <glyph glyph-name="S" unicode="S" horiz-adv-x="1210" 
d="M1112 430q0 -137 -70.5 -237.5t-195 -152.5t-275.5 -52q-86 0 -160 10.5t-135.5 31.5t-122 58.5t-114.5 91.5l184 185q122 -123 352 -123q126 0 192.5 46.5t66.5 133.5q0 80 -46 123q-41 38 -129 51l-176 25q-186 27 -282 120q-105 105 -105 287q0 198 137.5 320
t370.5 122q154 0 267 -40.5t204 -129.5l-180 -178q-62 59 -135.5 80t-163.5 21q-109 0 -167 -52t-58 -133q0 -64 43 -104q47 -45 135 -57l172 -25q186 -25 278 -113q113 -106 113 -309z" />
    <glyph glyph-name="T" unicode="T" horiz-adv-x="1169" 
d="M1108 1204h-381v-1204h-285v1204h-381v254h1047v-254z" />
    <glyph glyph-name="U" unicode="U" horiz-adv-x="1368" 
d="M1221 500q0 -151 -71 -268t-193.5 -180.5t-272.5 -63.5t-272.5 63.5t-193.5 180.5t-71 268v958h285v-948q0 -124 68 -196t184 -72q117 0 185.5 71.5t68.5 196.5v948h283v-958z" />
    <glyph glyph-name="V" unicode="V" horiz-adv-x="1190" 
d="M1184 1458l-484 -1458h-213l-481 1458h295l293 -950l293 950h297z" />
    <glyph glyph-name="W" unicode="W" horiz-adv-x="1817" 
d="M1804 1458l-391 -1458h-237l-269 885l-268 -885h-238l-389 1458h297l226 -919l266 919h213l266 -919l227 919h297z" />
    <glyph glyph-name="X" unicode="X" horiz-adv-x="1235" 
d="M1225 0h-326l-283 508l-280 -508h-326l453 748l-424 710h323l254 -471l256 471h322l-424 -710z" />
    <glyph glyph-name="Y" unicode="Y" horiz-adv-x="1171" 
d="M1165 1458l-438 -860v-598h-283v598l-438 860h309l273 -588l268 588h309z" />
    <glyph glyph-name="Z" unicode="Z" horiz-adv-x="1122" 
d="M1040 0h-958v229l623 975h-596v254h931v-225l-624 -979h624v-254z" />
    <glyph glyph-name="bracketleft" unicode="[" horiz-adv-x="774" 
d="M690 -152h-526v1762h526v-240h-260v-1282h260v-240z" />
    <glyph glyph-name="backslash" unicode="\" horiz-adv-x="825" 
d="M825 -152h-250l-575 1735h250z" />
    <glyph glyph-name="bracketright" unicode="]" horiz-adv-x="774" 
d="M612 -152h-526v238h260v1286h-260v238h526v-1762z" />
    <glyph glyph-name="asciicircum" unicode="^" horiz-adv-x="1233" 
d="M1104 797h-279l-209 385l-208 -385h-279l365 676h245z" />
    <glyph glyph-name="underscore" unicode="_" horiz-adv-x="1233" 
d="M1233 -365h-1233v179h1233v-179z" />
    <glyph glyph-name="grave" unicode="`" horiz-adv-x="1024" 
d="M625 1237h-179l-233 348h281z" />
    <glyph glyph-name="a" unicode="a" horiz-adv-x="1094" 
d="M956 0h-260v92q-52 -54 -112.5 -78t-149.5 -24t-157 23.5t-115 70.5q-88 90 -88 240q0 86 40.5 156.5t122 111.5t201.5 41h252v53q0 89 -46.5 128.5t-151.5 39.5q-76 0 -118.5 -19t-86.5 -69l-170 166q74 83 161 115t224 32q224 0 339 -95t115 -282v-702zM690 393v58
h-211q-71 0 -110 -32t-39 -89q0 -58 38.5 -90.5t114.5 -32.5q59 0 97 10t71 41q39 36 39 135z" />
    <glyph glyph-name="b" unicode="b" horiz-adv-x="1147" 
d="M1042 535q0 -166 -19 -273.5t-89 -177.5q-45 -44 -113.5 -70t-146.5 -26q-85 0 -148 26t-118 86v-100h-258v1458h266v-485q94 106 258 106q78 0 146.5 -25.5t113.5 -70.5q70 -70 89 -176.5t19 -271.5zM776 535q0 152 -35 228.5t-145 76.5q-77 0 -116 -38t-51.5 -102
t-12.5 -165q0 -102 12.5 -166.5t52 -103t115.5 -38.5q110 0 145 77.5t35 230.5z" />
    <glyph glyph-name="c" unicode="c" horiz-adv-x="983" 
d="M926 133q-141 -145 -353 -145q-88 0 -170 26t-152.5 89.5t-112.5 171.5t-42 260q0 153 42 260t112.5 170t153.5 88.5t169 25.5q113 0 197.5 -34.5t155.5 -108.5l-181 -180q-40 45 -80 64.5t-92 19.5q-93 0 -151 -70q-60 -75 -60 -235q0 -163 60 -238q58 -70 151 -70
q52 0 91.5 20t80.5 64z" />
    <glyph glyph-name="d" unicode="d" horiz-adv-x="1149" 
d="M999 0h-260v100q-53 -60 -116.5 -86t-147.5 -26q-53 0 -101 11.5t-90 33.5t-71 51q-48 46 -72.5 119.5t-30.5 148t-6 183.5q0 108 6 182t31 147t72 119q45 45 113.5 70.5t146.5 25.5q84 0 146.5 -24t113.5 -82v485h266v-1458zM733 535q0 102 -13 165.5t-53 101.5t-116 38
q-77 0 -116 -38t-51.5 -102t-12.5 -165q0 -102 12.5 -166.5t52 -103t115.5 -38.5q75 0 115.5 38.5t53.5 102.5t13 167z" />
    <glyph glyph-name="e" unicode="e" horiz-adv-x="1122" 
d="M1026 451h-668q0 -105 62.5 -171.5t171.5 -66.5q85 0 136 23t106 77l161 -157q-87 -87 -178 -127.5t-227 -40.5q-216 0 -355 124.5t-139 422.5q0 169 58 292.5t163.5 187.5t243.5 64q144 0 249.5 -65t160.5 -182.5t55 -262.5v-118zM764 633q-3 64 -25 115
q-22 49 -67.5 79.5t-110.5 30.5q-63 0 -109 -30.5t-69 -79.5q-22 -55 -25 -115h406z" />
    <glyph glyph-name="f" unicode="f" horiz-adv-x="700" 
d="M645 834h-196v-834h-267v834h-110v202h110v133q0 81 34 150.5t104.5 112.5t173.5 43h151v-226h-104q-92 0 -92 -96v-117h196v-202z" />
    <glyph glyph-name="g" unicode="g" horiz-adv-x="1137" 
d="M987 39q0 -96 -32 -176t-93.5 -139.5t-150.5 -93t-193 -33.5q-80 0 -149 13t-126.5 43t-111.5 83l166 168q45 -43 94 -62.5t115 -19.5q112 0 163.5 64t51.5 157v109q-52 -58 -112.5 -82.5t-141.5 -24.5q-160 0 -254 94q-36 38 -57.5 80.5t-33.5 99t-15 115.5t-3 129
q0 165 20.5 259.5t88.5 162.5q44 44 112 69t144 25q87 0 146 -26t114 -86v100h258v-1028zM721 563q0 129 -34.5 203t-141.5 74q-106 0 -140 -73t-34 -204q0 -83 11.5 -143t50.5 -97.5t112 -37.5q107 0 141.5 74.5t34.5 203.5z" />
    <glyph glyph-name="h" unicode="h" horiz-adv-x="1165" 
d="M1028 0h-266v651q0 98 -51 143.5t-123 45.5t-122 -46t-50 -143v-651h-266v1458h266v-489q53 54 118.5 82t137.5 28q87 0 154 -28.5t111.5 -80.5t67.5 -124t23 -156v-690z" />
    <glyph glyph-name="i" unicode="i" horiz-adv-x="563" 
d="M418 1249h-273v217h273v-217zM416 0h-266v1067h266v-1067z" />
    <glyph glyph-name="j" unicode="j" horiz-adv-x="563" 
d="M418 1249h-273v217h273v-217zM416 -94q0 -81 -33.5 -150t-104 -112t-174.5 -43h-151v225h102q95 0 95 96v1145h266v-1161z" />
    <glyph glyph-name="k" unicode="k" horiz-adv-x="1145" 
d="M1120 0h-329l-263 444l-112 -127v-317h-266v1458h266v-827l354 436h322l-381 -430z" />
    <glyph glyph-name="l" unicode="l" horiz-adv-x="666" 
d="M602 0h-151q-154 0 -233 89.5t-79 215.5v1153h267v-1136q0 -48 22 -72.5t72 -24.5h102v-225z" />
    <glyph glyph-name="m" unicode="m" horiz-adv-x="1794" 
d="M1657 0h-266v645q0 102 -52 148.5t-125 46.5q-71 0 -124.5 -46.5t-53.5 -142.5v-651h-266v645q0 101 -51.5 148t-124.5 47t-125.5 -47t-52.5 -148v-645h-266v1067h260v-98q50 52 122 81t144 29q184 0 282 -135q70 72 145 103.5t175 31.5q79 0 149.5 -25t112.5 -69
q117 -117 117 -303v-682z" />
    <glyph glyph-name="n" unicode="n" horiz-adv-x="1174" 
d="M1036 0h-266v645q0 101 -51.5 148t-124.5 47t-125.5 -47t-52.5 -148v-645h-266v1067h260v-98q51 53 120.5 81.5t145.5 28.5q156 0 252 -94q61 -61 84.5 -133t23.5 -170v-682z" />
    <glyph glyph-name="o" unicode="o" 
d="M1008 535q0 -99 -10.5 -174t-37.5 -134.5t-73 -107.5q-124 -131 -332 -131q-206 0 -330 131q-35 36 -58 77t-37.5 92t-20 116.5t-5.5 130.5q0 66 5.5 130.5t19.5 114t37.5 91t58.5 77.5q124 131 330 131q208 0 332 -131q69 -72 95 -166t26 -247zM741 535
q0 101 -11.5 160.5t-49.5 97.5q-49 47 -125 47q-74 0 -123 -47q-38 -40 -49.5 -101.5t-11.5 -156.5q0 -96 11.5 -158.5t49.5 -102.5q49 -47 123 -47q76 0 125 47q38 38 49.5 98.5t11.5 162.5z" />
    <glyph glyph-name="p" unicode="p" horiz-adv-x="1147" 
d="M1042 535q0 -166 -19 -273.5t-89 -177.5q-45 -44 -113.5 -70t-146.5 -26q-85 0 -146 25t-112 81v-485h-266v1458h258v-100q55 60 116.5 86t149.5 26q78 0 146.5 -25.5t113.5 -70.5q70 -70 89 -176.5t19 -271.5zM776 535q0 152 -35 228.5t-145 76.5q-77 0 -116 -38
t-51.5 -102t-12.5 -165q0 -102 12.5 -166.5t52 -103t115.5 -38.5q110 0 145 77.5t35 230.5z" />
    <glyph glyph-name="q" unicode="q" horiz-adv-x="1149" 
d="M999 -391h-266v485q-49 -56 -112.5 -81t-147.5 -25q-78 0 -146.5 26t-113.5 70q-48 46 -72.5 119.5t-30.5 148t-6 183.5q0 108 6 182t31 147t71.5 119t115 71t147.5 25q87 0 149 -26t115 -86v100h260v-1458zM733 535q0 102 -13 165.5t-53 101.5t-116 38q-77 0 -116 -38
t-51.5 -102t-12.5 -165q0 -102 12.5 -166.5t52 -103t115.5 -38.5q75 0 115.5 38.5t53.5 102.5t13 167z" />
    <glyph glyph-name="r" unicode="r" horiz-adv-x="932" 
d="M930 979l-201 -203q-32 34 -63.5 49t-77.5 15q-69 0 -120.5 -51.5t-51.5 -145.5v-643h-266v1067h260v-102q40 48 112 81t156 33q82 0 140 -23t112 -77z" />
    <glyph glyph-name="s" unicode="s" horiz-adv-x="1026" 
d="M952 336q0 -170 -126.5 -259t-325.5 -89q-97 0 -172 11t-147 44.5t-136 97.5l174 174q100 -100 285 -100q76 0 132 27.5t56 83.5q0 87 -112 98l-168 16q-152 16 -232 87t-80 212q0 159 119.5 249.5t292.5 90.5q275 0 408 -125l-164 -166q-80 72 -248 72q-75 0 -113.5 -29
t-38.5 -73q0 -83 111 -92l168 -17q105 -11 175.5 -50t106 -106.5t35.5 -156.5z" />
    <glyph glyph-name="t" unicode="t" horiz-adv-x="721" 
d="M629 0h-146q-102 0 -172 43t-103.5 112t-33.5 150v529h-113v202h113v316h266v-316h189v-202h-189v-512q0 -97 92 -97h97v-225z" />
    <glyph glyph-name="u" unicode="u" horiz-adv-x="1174" 
d="M1024 0h-260v98q-105 -110 -266 -110q-158 0 -252 94q-60 60 -84.5 134.5t-24.5 168.5v682h266v-645q0 -102 52 -148.5t125 -46.5q74 0 126 46.5t52 148.5v645h266v-1067z" />
    <glyph glyph-name="v" unicode="v" horiz-adv-x="1010" 
d="M1001 1067l-391 -1067h-209l-393 1067h281l217 -659l215 659h280z" />
    <glyph glyph-name="w" unicode="w" horiz-adv-x="1554" 
d="M1546 1067l-325 -1067h-220l-223 670l-223 -670h-219l-328 1067h283l172 -659l217 659h194l220 -659l172 659h280z" />
    <glyph glyph-name="x" unicode="x" horiz-adv-x="1079" 
d="M1055 0h-320l-196 319l-195 -319h-319l368 545l-354 522h319l181 -305l182 305h319l-354 -522z" />
    <glyph glyph-name="y" unicode="y" horiz-adv-x="1012" 
d="M1004 1067l-457 -1239q-36 -93 -80 -137q-41 -42 -99.5 -62t-129.5 -20h-105v239h62q56 0 85 20.5t48 76.5l45 131l-365 991h281l221 -659l213 659h281z" />
    <glyph glyph-name="z" unicode="z" horiz-adv-x="979" 
d="M889 0h-813v203l473 624h-447v240h787v-203l-479 -624h479v-240z" />
    <glyph glyph-name="braceleft" unicode="{" horiz-adv-x="936" 
d="M848 -152h-209q-153 0 -229 76q-86 86 -86 228v297q0 87 -35 122q-39 39 -107 39h-94v238h94q68 0 107 39q35 35 35 123v297q0 142 86 227q76 76 229 76h209v-240h-109q-88 0 -116 -29q-33 -34 -33 -131v-276q0 -97 -39.5 -138.5t-101.5 -66.5q61 -22 101 -65t40 -140
v-276q0 -97 33 -131q28 -29 116 -29h109v-240z" />
    <glyph glyph-name="bar" unicode="|" horiz-adv-x="717" 
d="M492 -152h-267v1762h267v-1762z" />
    <glyph glyph-name="braceright" unicode="}" horiz-adv-x="936" 
d="M848 610h-94q-68 0 -107 -39q-35 -35 -35 -122v-297q0 -142 -86 -228q-76 -76 -229 -76h-209v240h109q88 0 116 29q33 34 33 131v276q0 97 39.5 139t101.5 66q-64 27 -102.5 67.5t-38.5 137.5v276q0 97 -33 131q-28 29 -116 29h-109v240h209q153 0 229 -76
q86 -85 86 -227v-297q0 -88 35 -123q39 -39 107 -39h94v-238z" />
    <glyph glyph-name="asciitilde" unicode="~" horiz-adv-x="1241" 
d="M1165 575q-96 -96 -172 -136t-166 -40q-59 0 -113.5 16.5t-125.5 53.5q-95 49 -168 49q-48 0 -85 -16t-91 -70l-168 168q64 64 117 103t104.5 56t114.5 17q64 0 118.5 -16.5t120.5 -52.5q54 -27 90.5 -38.5t75.5 -11.5q46 0 85.5 16.5t92.5 69.5z" />
    <glyph glyph-name="Adieresis" unicode="&#xc4;" horiz-adv-x="1307" 
d="M1296 0h-297l-86 258h-518l-88 -258h-297l531 1458h223zM838 498l-179 530l-184 -530h363zM989 1603h-227v256h227v-256zM536 1603h-227v256h227v-256z" />
    <glyph glyph-name="Aring" unicode="&#xc5;" horiz-adv-x="1307" 
d="M1296 0h-297l-86 258h-518l-88 -258h-297l531 1458h223zM838 498l-179 530l-184 -530h363zM917 1810q0 -110 -78 -189t-190 -79q-110 0 -189 79t-79 189q0 111 79 190t189 79q111 0 189.5 -78.5t78.5 -190.5zM768 1810q0 51 -34 85t-85 34t-85 -34t-34 -85
q0 -50 34.5 -85.5t84.5 -35.5t84.5 35.5t34.5 85.5z" />
    <glyph glyph-name="Ccedilla" unicode="&#xc7;" horiz-adv-x="1270" 
d="M1194 449q-25 -149 -99.5 -252.5t-187 -156t-250.5 -52.5q-232 0 -393 159q-68 70 -98.5 154.5t-37.5 176t-7 251.5t7 251.5t37.5 176t98.5 154.5q161 159 393 159q210 0 355 -118t182 -342h-289q-23 95 -83.5 151t-162.5 56q-116 0 -182 -76q-29 -34 -43.5 -74.5
t-21 -121t-6.5 -216.5t6 -216t21 -121t44 -75q65 -75 182 -75q102 0 162.5 56t83.5 151h289zM777 -123l-91 -299h-247l141 299h197z" />
    <glyph glyph-name="Eacute" unicode="&#xc9;" horiz-adv-x="1239" 
d="M1130 0h-960v1458h960v-254h-675v-342h575v-254h-575v-354h675v-254zM932 1947l-233 -348h-179l131 348h281z" />
    <glyph glyph-name="Ntilde" unicode="&#xd1;" horiz-adv-x="1456" 
d="M1286 0h-254l-577 895v-895h-285v1458h254l577 -893v893h285v-1458zM1098 1742q-67 -67 -120 -93.5t-112 -26.5q-40 0 -74.5 10.5t-82.5 36.5q-64 36 -115 36q-32 0 -58.5 -11.5t-62.5 -47.5l-115 117q66 66 118 93.5t112 27.5q47 0 80 -10t77 -37q61 -37 113 -37
q30 0 57.5 11.5t63.5 47.5z" />
    <glyph glyph-name="Odieresis" unicode="&#xd6;" horiz-adv-x="1319" 
d="M1198 729q0 -121 -2.5 -191t-16.5 -143.5t-43.5 -134t-82.5 -113.5q-161 -159 -394 -159q-121 0 -217.5 40t-177.5 119q-68 70 -98.5 154.5t-37.5 176t-7 251.5t7 251.5t37.5 176t98.5 154.5q81 79 177.5 119t217.5 40q233 0 394 -159q67 -69 99 -154t39 -176.5t7 -251.5
zM913 729q0 136 -6.5 216t-21 120t-43.5 74q-29 35 -77.5 56.5t-105.5 21.5q-54 0 -103 -21t-81 -57q-29 -34 -43 -73.5t-20 -120t-6 -216.5t6 -216t20 -120t43 -74q67 -77 184 -77q116 0 183 77q29 34 43.5 74.5t21 119.5t6.5 216zM999 1603h-227v256h227v-256zM546 1603
h-227v256h227v-256z" />
    <glyph glyph-name="Udieresis" unicode="&#xdc;" horiz-adv-x="1368" 
d="M1221 500q0 -151 -71 -268t-193.5 -180.5t-272.5 -63.5t-272.5 63.5t-193.5 180.5t-71 268v958h285v-948q0 -124 68 -196t184 -72q117 0 185.5 71.5t68.5 196.5v948h283v-958zM1024 1603h-227v256h227v-256zM571 1603h-227v256h227v-256z" />
    <glyph glyph-name="aacute" unicode="&#xe1;" horiz-adv-x="1094" 
d="M956 0h-260v92q-52 -54 -112.5 -78t-149.5 -24t-157 23.5t-115 70.5q-88 90 -88 240q0 86 40.5 156.5t122 111.5t201.5 41h252v53q0 89 -46.5 128.5t-151.5 39.5q-76 0 -118.5 -19t-86.5 -69l-170 166q74 83 161 115t224 32q224 0 339 -95t115 -282v-702zM690 393v58
h-211q-71 0 -110 -32t-39 -89q0 -58 38.5 -90.5t114.5 -32.5q59 0 97 10t71 41q39 36 39 135zM834 1585l-233 -348h-179l131 348h281z" />
    <glyph glyph-name="agrave" unicode="&#xe0;" horiz-adv-x="1094" 
d="M956 0h-260v92q-52 -54 -112.5 -78t-149.5 -24t-157 23.5t-115 70.5q-88 90 -88 240q0 86 40.5 156.5t122 111.5t201.5 41h252v53q0 89 -46.5 128.5t-151.5 39.5q-76 0 -118.5 -19t-86.5 -69l-170 166q74 83 161 115t224 32q224 0 339 -95t115 -282v-702zM690 393v58
h-211q-71 0 -110 -32t-39 -89q0 -58 38.5 -90.5t114.5 -32.5q59 0 97 10t71 41q39 36 39 135zM648 1237h-179l-233 348h281z" />
    <glyph glyph-name="acircumflex" unicode="&#xe2;" horiz-adv-x="1094" 
d="M956 0h-260v92q-52 -54 -112.5 -78t-149.5 -24t-157 23.5t-115 70.5q-88 90 -88 240q0 86 40.5 156.5t122 111.5t201.5 41h252v53q0 89 -46.5 128.5t-151.5 39.5q-76 0 -118.5 -19t-86.5 -69l-170 166q74 83 161 115t224 32q224 0 339 -95t115 -282v-702zM690 393v58
h-211q-71 0 -110 -32t-39 -89q0 -58 38.5 -90.5t114.5 -32.5q59 0 97 10t71 41q39 36 39 135zM912 1237h-207l-170 186l-170 -186h-207l271 346h212z" />
    <glyph glyph-name="adieresis" unicode="&#xe4;" horiz-adv-x="1094" 
d="M956 0h-260v92q-52 -54 -112.5 -78t-149.5 -24t-157 23.5t-115 70.5q-88 90 -88 240q0 86 40.5 156.5t122 111.5t201.5 41h252v53q0 89 -46.5 128.5t-151.5 39.5q-76 0 -118.5 -19t-86.5 -69l-170 166q74 83 161 115t224 32q224 0 339 -95t115 -282v-702zM690 393v58
h-211q-71 0 -110 -32t-39 -89q0 -58 38.5 -90.5t114.5 -32.5q59 0 97 10t71 41q39 36 39 135zM875 1241h-227v256h227v-256zM422 1241h-227v256h227v-256z" />
    <glyph glyph-name="atilde" unicode="&#xe3;" horiz-adv-x="1094" 
d="M956 0h-260v92q-52 -54 -112.5 -78t-149.5 -24t-157 23.5t-115 70.5q-88 90 -88 240q0 86 40.5 156.5t122 111.5t201.5 41h252v53q0 89 -46.5 128.5t-151.5 39.5q-76 0 -118.5 -19t-86.5 -69l-170 166q74 83 161 115t224 32q224 0 339 -95t115 -282v-702zM690 393v58
h-211q-71 0 -110 -32t-39 -89q0 -58 38.5 -90.5t114.5 -32.5q59 0 97 10t71 41q39 36 39 135zM904 1380q-67 -67 -120 -93.5t-112 -26.5q-40 0 -74.5 10.5t-82.5 36.5q-64 36 -115 36q-32 0 -58.5 -11.5t-62.5 -47.5l-115 117q66 66 118 93.5t112 27.5q47 0 80 -10t77 -37
q61 -37 113 -37q30 0 57.5 11.5t63.5 47.5z" />
    <glyph glyph-name="aring" unicode="&#xe5;" horiz-adv-x="1094" 
d="M956 0h-260v92q-52 -54 -112.5 -78t-149.5 -24t-157 23.5t-115 70.5q-88 90 -88 240q0 86 40.5 156.5t122 111.5t201.5 41h252v53q0 89 -46.5 128.5t-151.5 39.5q-76 0 -118.5 -19t-86.5 -69l-170 166q74 83 161 115t224 32q224 0 339 -95t115 -282v-702zM690 393v58
h-211q-71 0 -110 -32t-39 -89q0 -58 38.5 -90.5t114.5 -32.5q59 0 97 10t71 41q39 36 39 135zM803 1464q0 -110 -78 -189t-190 -79q-110 0 -189 79t-79 189q0 111 79 190t189 79q111 0 189.5 -78.5t78.5 -190.5zM654 1464q0 51 -34 85t-85 34t-85 -34t-34 -85
q0 -50 34.5 -85.5t84.5 -35.5t84.5 35.5t34.5 85.5z" />
    <glyph glyph-name="ccedilla" unicode="&#xe7;" horiz-adv-x="987" 
d="M926 133q-141 -145 -353 -145q-88 0 -170 26t-152.5 89.5t-112.5 171.5t-42 260q0 153 42 260t112.5 170t153.5 88.5t169 25.5q113 0 197.5 -34.5t155.5 -108.5l-181 -180q-40 45 -80 64.5t-92 19.5q-93 0 -151 -70q-60 -75 -60 -235q0 -163 60 -238q58 -70 151 -70
q52 0 91.5 20t80.5 64zM666 -123l-91 -299h-247l141 299h197z" />
    <glyph glyph-name="eacute" unicode="&#xe9;" horiz-adv-x="1122" 
d="M1026 451h-668q0 -105 62.5 -171.5t171.5 -66.5q85 0 136 23t106 77l161 -157q-87 -87 -178 -127.5t-227 -40.5q-216 0 -355 124.5t-139 422.5q0 169 58 292.5t163.5 187.5t243.5 64q144 0 249.5 -65t160.5 -182.5t55 -262.5v-118zM764 633q-3 64 -25 115
q-22 49 -67.5 79.5t-110.5 30.5q-63 0 -109 -30.5t-69 -79.5q-22 -55 -25 -115h406zM866 1585l-233 -348h-179l131 348h281z" />
    <glyph glyph-name="egrave" unicode="&#xe8;" horiz-adv-x="1122" 
d="M1026 451h-668q0 -105 62.5 -171.5t171.5 -66.5q85 0 136 23t106 77l161 -157q-87 -87 -178 -127.5t-227 -40.5q-216 0 -355 124.5t-139 422.5q0 169 58 292.5t163.5 187.5t243.5 64q144 0 249.5 -65t160.5 -182.5t55 -262.5v-118zM764 633q-3 64 -25 115
q-22 49 -67.5 79.5t-110.5 30.5q-63 0 -109 -30.5t-69 -79.5q-22 -55 -25 -115h406zM680 1237h-179l-233 348h281z" />
    <glyph glyph-name="ecircumflex" unicode="&#xea;" horiz-adv-x="1122" 
d="M1026 451h-668q0 -105 62.5 -171.5t171.5 -66.5q85 0 136 23t106 77l161 -157q-87 -87 -178 -127.5t-227 -40.5q-216 0 -355 124.5t-139 422.5q0 169 58 292.5t163.5 187.5t243.5 64q144 0 249.5 -65t160.5 -182.5t55 -262.5v-118zM764 633q-3 64 -25 115
q-22 49 -67.5 79.5t-110.5 30.5q-63 0 -109 -30.5t-69 -79.5q-22 -55 -25 -115h406zM944 1237h-207l-170 186l-170 -186h-207l271 346h212z" />
    <glyph glyph-name="edieresis" unicode="&#xeb;" horiz-adv-x="1122" 
d="M1026 451h-668q0 -105 62.5 -171.5t171.5 -66.5q85 0 136 23t106 77l161 -157q-87 -87 -178 -127.5t-227 -40.5q-216 0 -355 124.5t-139 422.5q0 169 58 292.5t163.5 187.5t243.5 64q144 0 249.5 -65t160.5 -182.5t55 -262.5v-118zM764 633q-3 64 -25 115
q-22 49 -67.5 79.5t-110.5 30.5q-63 0 -109 -30.5t-69 -79.5q-22 -55 -25 -115h406zM907 1241h-227v256h227v-256zM454 1241h-227v256h227v-256z" />
    <glyph glyph-name="iacute" unicode="&#xed;" horiz-adv-x="563" 
d="M416 0h-266v1067h266v-1067zM532 1585l-233 -348h-179l131 348h281z" />
    <glyph glyph-name="igrave" unicode="&#xec;" horiz-adv-x="563" 
d="M416 0h-266v1067h266v-1067zM451 1237h-179l-233 348h281z" />
    <glyph glyph-name="icircumflex" unicode="&#xee;" horiz-adv-x="563" 
d="M416 0h-266v1067h266v-1067zM664 1237h-207l-170 186l-170 -186h-207l271 346h212z" />
    <glyph glyph-name="idieresis" unicode="&#xef;" horiz-adv-x="563" 
d="M416 0h-266v1067h266v-1067zM621 1241h-227v256h227v-256zM168 1241h-227v256h227v-256z" />
    <glyph glyph-name="ntilde" unicode="&#xf1;" horiz-adv-x="1174" 
d="M1036 0h-266v645q0 101 -51.5 148t-124.5 47t-125.5 -47t-52.5 -148v-645h-266v1067h260v-98q51 53 120.5 81.5t145.5 28.5q156 0 252 -94q61 -61 84.5 -133t23.5 -170v-682zM963 1380q-67 -67 -120 -93.5t-112 -26.5q-40 0 -74.5 10.5t-82.5 36.5q-64 36 -115 36
q-32 0 -58.5 -11.5t-62.5 -47.5l-115 117q66 66 118 93.5t112 27.5q47 0 80 -10t77 -37q61 -37 113 -37q30 0 57.5 11.5t63.5 47.5z" />
    <glyph glyph-name="oacute" unicode="&#xf3;" 
d="M1008 535q0 -99 -10.5 -174t-37.5 -134.5t-73 -107.5q-124 -131 -332 -131q-206 0 -330 131q-35 36 -58 77t-37.5 92t-20 116.5t-5.5 130.5q0 66 5.5 130.5t19.5 114t37.5 91t58.5 77.5q124 131 330 131q208 0 332 -131q69 -72 95 -166t26 -247zM741 535
q0 101 -11.5 160.5t-49.5 97.5q-49 47 -125 47q-74 0 -123 -47q-38 -40 -49.5 -101.5t-11.5 -156.5q0 -96 11.5 -158.5t49.5 -102.5q49 -47 123 -47q76 0 125 47q38 38 49.5 98.5t11.5 162.5zM856 1585l-233 -348h-179l131 348h281z" />
    <glyph glyph-name="ograve" unicode="&#xf2;" 
d="M1008 535q0 -99 -10.5 -174t-37.5 -134.5t-73 -107.5q-124 -131 -332 -131q-206 0 -330 131q-35 36 -58 77t-37.5 92t-20 116.5t-5.5 130.5q0 66 5.5 130.5t19.5 114t37.5 91t58.5 77.5q124 131 330 131q208 0 332 -131q69 -72 95 -166t26 -247zM741 535
q0 101 -11.5 160.5t-49.5 97.5q-49 47 -125 47q-74 0 -123 -47q-38 -40 -49.5 -101.5t-11.5 -156.5q0 -96 11.5 -158.5t49.5 -102.5q49 -47 123 -47q76 0 125 47q38 38 49.5 98.5t11.5 162.5zM662 1237h-179l-233 348h281z" />
    <glyph glyph-name="ocircumflex" unicode="&#xf4;" 
d="M1008 535q0 -99 -10.5 -174t-37.5 -134.5t-73 -107.5q-124 -131 -332 -131q-206 0 -330 131q-35 36 -58 77t-37.5 92t-20 116.5t-5.5 130.5q0 66 5.5 130.5t19.5 114t37.5 91t58.5 77.5q124 131 330 131q208 0 332 -131q69 -72 95 -166t26 -247zM741 535
q0 101 -11.5 160.5t-49.5 97.5q-49 47 -125 47q-74 0 -123 -47q-38 -40 -49.5 -101.5t-11.5 -156.5q0 -96 11.5 -158.5t49.5 -102.5q49 -47 123 -47q76 0 125 47q38 38 49.5 98.5t11.5 162.5zM934 1237h-207l-170 186l-170 -186h-207l271 346h212z" />
    <glyph glyph-name="odieresis" unicode="&#xf6;" 
d="M1008 535q0 -99 -10.5 -174t-37.5 -134.5t-73 -107.5q-124 -131 -332 -131q-206 0 -330 131q-35 36 -58 77t-37.5 92t-20 116.5t-5.5 130.5q0 66 5.5 130.5t19.5 114t37.5 91t58.5 77.5q124 131 330 131q208 0 332 -131q69 -72 95 -166t26 -247zM741 535
q0 101 -11.5 160.5t-49.5 97.5q-49 47 -125 47q-74 0 -123 -47q-38 -40 -49.5 -101.5t-11.5 -156.5q0 -96 11.5 -158.5t49.5 -102.5q49 -47 123 -47q76 0 125 47q38 38 49.5 98.5t11.5 162.5zM897 1241h-227v256h227v-256zM444 1241h-227v256h227v-256z" />
    <glyph glyph-name="otilde" unicode="&#xf5;" 
d="M1008 535q0 -99 -10.5 -174t-37.5 -134.5t-73 -107.5q-124 -131 -332 -131q-206 0 -330 131q-35 36 -58 77t-37.5 92t-20 116.5t-5.5 130.5q0 66 5.5 130.5t19.5 114t37.5 91t58.5 77.5q124 131 330 131q208 0 332 -131q69 -72 95 -166t26 -247zM741 535
q0 101 -11.5 160.5t-49.5 97.5q-49 47 -125 47q-74 0 -123 -47q-38 -40 -49.5 -101.5t-11.5 -156.5q0 -96 11.5 -158.5t49.5 -102.5q49 -47 123 -47q76 0 125 47q38 38 49.5 98.5t11.5 162.5zM926 1380q-67 -67 -120 -93.5t-112 -26.5q-40 0 -74.5 10.5t-82.5 36.5
q-64 36 -115 36q-32 0 -58.5 -11.5t-62.5 -47.5l-115 117q66 66 118 93.5t112 27.5q47 0 80 -10t77 -37q61 -37 113 -37q30 0 57.5 11.5t63.5 47.5z" />
    <glyph glyph-name="uacute" unicode="&#xfa;" horiz-adv-x="1174" 
d="M1024 0h-260v98q-105 -110 -266 -110q-158 0 -252 94q-60 60 -84.5 134.5t-24.5 168.5v682h266v-645q0 -102 52 -148.5t125 -46.5q74 0 126 46.5t52 148.5v645h266v-1067zM879 1585l-233 -348h-179l131 348h281z" />
    <glyph glyph-name="ugrave" unicode="&#xf9;" horiz-adv-x="1174" 
d="M1024 0h-260v98q-105 -110 -266 -110q-158 0 -252 94q-60 60 -84.5 134.5t-24.5 168.5v682h266v-645q0 -102 52 -148.5t125 -46.5q74 0 126 46.5t52 148.5v645h266v-1067zM693 1237h-179l-233 348h281z" />
    <glyph glyph-name="ucircumflex" unicode="&#xfb;" horiz-adv-x="1174" 
d="M1024 0h-260v98q-105 -110 -266 -110q-158 0 -252 94q-60 60 -84.5 134.5t-24.5 168.5v682h266v-645q0 -102 52 -148.5t125 -46.5q74 0 126 46.5t52 148.5v645h266v-1067zM957 1237h-207l-170 186l-170 -186h-207l271 346h212z" />
    <glyph glyph-name="udieresis" unicode="&#xfc;" horiz-adv-x="1174" 
d="M1024 0h-260v98q-105 -110 -266 -110q-158 0 -252 94q-60 60 -84.5 134.5t-24.5 168.5v682h266v-645q0 -102 52 -148.5t125 -46.5q74 0 126 46.5t52 148.5v645h266v-1067zM920 1241h-227v256h227v-256zM467 1241h-227v256h227v-256z" />
    <glyph glyph-name="dagger" unicode="&#x2020;" horiz-adv-x="1186" 
d="M1069 840h-344v-840h-266v840h-342v239h342v379h266v-379h344v-239z" />
    <glyph glyph-name="degree" unicode="&#xb0;" horiz-adv-x="979" 
d="M866 1110q0 -101 -50.5 -188.5t-138 -138t-188.5 -50.5t-188 50.5t-137.5 138t-50.5 188.5t50.5 189.5t137.5 139t188 50.5t188.5 -50.5t138 -139t50.5 -189.5zM651 1110q0 69 -47.5 116.5t-116.5 47.5q-68 0 -113.5 -47.5t-45.5 -116.5t46.5 -116.5t114.5 -47.5
q69 0 115.5 47.5t46.5 116.5z" />
    <glyph glyph-name="cent" unicode="&#xa2;" horiz-adv-x="1022" 
d="M961 369q-119 -125 -279 -154v-215h-207v215q-82 17 -151 59t-120 108.5t-79.5 159t-28.5 208.5q0 226 105 363.5t274 170.5v174h207v-174q159 -28 279 -154l-177 -172q-64 67 -131 84v-585q42 10 69.5 29t61.5 55zM504 461v577q-45 -12 -78 -53q-64 -80 -64 -235
q0 -156 64 -236q30 -41 78 -53z" />
    <glyph glyph-name="sterling" unicode="&#xa3;" horiz-adv-x="1186" 
d="M1094 0h-887v608h-125v205h125v166q0 117 42 210t113.5 155.5t163 94t195.5 31.5q120 0 206.5 -34t166.5 -115l-187 -186q-38 40 -80.5 61t-105.5 21q-107 0 -169.5 -63t-62.5 -187v-154h232v-205h-232v-354h605v-254z" />
    <glyph glyph-name="section" unicode="&#xa7;" horiz-adv-x="1087" 
d="M969 561q0 -71 -29 -132t-71.5 -105.5t-84.5 -67.5q166 -83 166 -285q0 -120 -57 -205t-149 -127t-199 -42t-198.5 38.5t-150 121.5t-59.5 204h256q3 -58 43.5 -93.5t108.5 -35.5q69 0 109 36t40 95q0 104 -143 152l-127 43q-154 52 -226.5 140.5t-72.5 244.5
q0 102 58.5 185.5t127.5 119.5q-74 40 -114.5 102t-40.5 166q0 95 44 176t133 129.5t216 48.5q129 0 217 -46t131 -125.5t45 -180.5h-250q-3 64 -41 94.5t-102 30.5q-68 0 -105.5 -33.5t-37.5 -87.5q0 -90 137 -135l127 -41q72 -22 129 -55.5t94.5 -80t56.5 -107t19 -142.5z
M713 551q0 88 -51 139q-46 43 -115 43q-74 0 -117 -43q-49 -47 -49 -139q0 -88 49 -137q43 -43 117 -43q72 0 115 43q51 51 51 137z" />
    <glyph glyph-name="bullet" unicode="&#x2022;" horiz-adv-x="1010" 
d="M838 684q0 -69 -26 -129.5t-71.5 -106t-108 -72t-128.5 -26.5q-138 0 -236 98t-98 236q0 90 45 167.5t122.5 122t166.5 44.5q69 0 130.5 -26t106.5 -71t71 -106.5t26 -130.5z" />
    <glyph glyph-name="paragraph" unicode="&#xb6;" horiz-adv-x="1368" 
d="M1198 -391h-266v1595h-205v-1595h-266v1022q-102 0 -191.5 55.5t-143.5 150t-54 205.5q0 198 128.5 307t344.5 109h653v-1849z" />
    <glyph glyph-name="germandbls" unicode="&#xdf;" horiz-adv-x="1176" 
d="M1057 330q0 -163 -84 -244q-88 -86 -258 -86h-107v225h54q56 0 92 31q34 31 34 96v295q0 62 -30 92q-33 33 -92 33h-58v209h58q53 0 87.5 30.5t34.5 92.5q0 57 -38 92q-46 43 -144 43q-103 0 -146.5 -49t-43.5 -143v-1047h-266v1067q0 204 124.5 303.5t335.5 99.5
q133 0 232.5 -38.5t156 -119.5t56.5 -200q0 -154 -125 -231q63 -31 95 -82.5t32 -141.5v-327z" />
    <glyph glyph-name="registered" unicode="&#xae;" horiz-adv-x="1729" 
d="M1606 729q0 -149 -58 -286t-159.5 -238.5t-238.5 -159t-286 -57.5q-148 0 -285 57.5t-238.5 159t-159.5 238.5t-58 286t58 286t159.5 238.5t238.5 159t285 57.5q149 0 286 -57.5t238.5 -159t159.5 -238.5t58 -286zM1430 729q0 162 -74.5 294t-204.5 207t-287 75
t-287 -75.5t-204 -207t-74 -293.5t74 -293.5t204 -206.5t287 -75t287 74.5t204.5 206.5t74.5 294zM1198 336h-201l-143 305h-84v-305h-176v788h321q77 0 137 -34t93 -90.5t33 -122.5q0 -77 -41.5 -130.5t-104.5 -78.5zM1001 877q0 27 -13.5 51t-38 37.5t-56.5 13.5h-123
v-205h123q48 0 78 30t30 73z" />
    <glyph glyph-name="copyright" unicode="&#xa9;" horiz-adv-x="1729" 
d="M1606 729q0 -149 -58 -286t-159.5 -238.5t-238.5 -159t-286 -57.5q-148 0 -285 57.5t-238.5 159t-159.5 238.5t-58 286t58 286t159.5 238.5t238.5 159t285 57.5q149 0 286 -57.5t238.5 -159t159.5 -238.5t58 -286zM1427 729q0 162 -74.5 294t-203.5 207t-285 75
t-286 -75.5t-204.5 -207t-74.5 -293.5t74.5 -293.5t204.5 -206.5t286 -75t285.5 74.5t203.5 206.5t74 294zM1149 434q-62 -54 -125 -80t-145 -26q-103 0 -187 46.5t-132 138t-48 216.5q0 127 48 218t132.5 138.5t186.5 47.5q145 0 270 -109l-115 -115q-39 34 -75 50t-80 16
q-95 0 -144 -65t-49 -181q0 -114 49 -180t144 -66q44 0 78.5 15t76.5 51z" />
    <glyph glyph-name="trademark" unicode="&#x2122;" horiz-adv-x="1892" 
d="M1761 584h-194v516l-164 -322h-172l-164 322v-516h-195v874h195l250 -467l250 467h194v-874zM737 1284h-225v-700h-195v700h-225v174h645v-174z" />
    <glyph glyph-name="acute" unicode="&#xb4;" horiz-adv-x="1024" 
d="M811 1585l-233 -348h-179l131 348h281z" />
    <glyph glyph-name="dieresis" unicode="&#xa8;" horiz-adv-x="1024" 
d="M852 1241h-227v256h227v-256zM399 1241h-227v256h227v-256z" />
    <glyph glyph-name="notequal" unicode="&#x2260;" horiz-adv-x="1233" 
d="M1130 238h-655l-211 -265l-162 127l113 138h-113v249h306l159 195h-465v250h656l211 264l161 -127l-112 -137h112v-250h-303l-159 -195h462v-249z" />
    <glyph glyph-name="AE" unicode="&#xc6;" horiz-adv-x="2005" 
d="M1896 0h-958v319h-461l-166 -319h-305l762 1458h1128v-254h-675v-344h577v-254h-577v-352h675v-254zM938 559v645l-338 -645h338z" />
    <glyph glyph-name="Oslash" unicode="&#xd8;" horiz-adv-x="1335" 
d="M1198 729q0 -121 -2.5 -191t-16.5 -143.5t-43.5 -134t-82.5 -113.5q-161 -159 -394 -159q-132 0 -231 45l-59 -123h-203l108 227l-10 10q-68 70 -98.5 154.5t-37.5 176t-7 251.5t7 251.5t37.5 176t98.5 154.5q81 79 177.5 119t217.5 40q133 0 232 -45l59 123h201
l-109 -227l11 -10q67 -69 99 -154t39 -176.5t7 -251.5zM788 1184q-54 33 -129 33q-54 0 -103 -21t-81 -57q-29 -34 -43 -73.5t-20 -120t-6 -216.5q0 -125 4.5 -197t13.5 -112zM913 729q0 225 -20 309l-365 -762q57 -34 131 -34q116 0 183 77q29 34 43.5 74.5t21 119.5
t6.5 216z" />
    <glyph glyph-name="infinity" unicode="&#x221e;" horiz-adv-x="1743" 
d="M1630 582q0 -109 -45 -196.5t-133 -138t-211 -50.5q-202 0 -371 192q-168 -192 -368 -192q-123 0 -211 50.5t-133 138t-45 196.5q0 108 45 197.5t132.5 140.5t211.5 51q104 0 196 -51.5t172 -143.5q172 195 371 195q124 0 211.5 -51t132.5 -140.5t45 -197.5zM1372 575
q0 62 -38.5 98t-94.5 36q-49 0 -87 -31t-99 -103q63 -74 100 -103.5t86 -29.5q55 0 94 36t39 97zM690 575q-55 68 -96.5 102t-91.5 34q-55 0 -93 -38t-38 -98t38 -96.5t93 -36.5q49 0 90 32t98 101z" />
    <glyph glyph-name="plusminus" unicode="&#xb1;" 
d="M1010 698h-328v-329h-250v329h-330v248h330v330h250v-330h328v-248zM1010 0h-908v250h908v-250z" />
    <glyph glyph-name="lessequal" unicode="&#x2264;" horiz-adv-x="2103" 
d="M1810 2l-178 -178l-1018 1020l2 -942l-237 237v1116h1118l238 -237l-942 4z" />
    <glyph glyph-name="greaterequal" unicode="&#x2265;" horiz-adv-x="2103" 
d="M1722 141l-237 -237l4 940l-1020 -1020l-178 178l1020 1020l-942 -4l237 237h1116v-1114z" />
    <glyph glyph-name="yen" unicode="&#xa5;" horiz-adv-x="1169" 
d="M1163 1458l-278 -553h151v-205h-256l-53 -102v-104h309v-205h-309v-289h-283v289h-311v205h311v104l-53 102h-258v205h154l-281 553h309l271 -590l270 590h307z" />
    <glyph glyph-name="mu" unicode="&#xb5;" horiz-adv-x="1180" 
d="M1030 0h-260v98q-105 -110 -266 -110q-57 0 -94 28v-407h-267v1458h267v-645q0 -102 51.5 -148.5t124.5 -46.5q74 0 126 46.5t52 148.5v645h266v-1067z" />
    <glyph glyph-name="partialdiff" unicode="&#x2202;" horiz-adv-x="1137" 
d="M987 520q0 -149 -24.5 -241.5t-92.5 -163.5q-118 -127 -319 -127q-198 0 -318 127q-66 70 -92 164.5t-26 240.5q0 149 26 243.5t92 164.5q117 123 308 123q113 0 178 -60v56q0 71 -51 134.5t-162 63.5q-126 0 -209 -82l-166 168q80 77 170 108t217 31q117 0 204.5 -35
t146 -99.5t88.5 -154.5t30 -196v-465zM721 520q0 96 -11 154t-44 92q-45 45 -115 45t-115 -45q-33 -36 -44 -96.5t-11 -149.5q0 -88 11 -149.5t44 -98.5q47 -45 115 -45t115 45q33 35 44 94t11 154z" />
    <glyph glyph-name="summation" unicode="&#x2211;" horiz-adv-x="1130" 
d="M1055 -391h-973v225l387 770l-381 727v225h959v-253h-627l289 -572v-264l-299 -604h645v-254z" />
    <glyph glyph-name="product" unicode="&#x220f;" horiz-adv-x="1403" 
d="M1233 -391h-285v1696h-493v-1696h-285v1947h1063v-1947z" />
    <glyph glyph-name="pi" unicode="&#x3c0;" horiz-adv-x="1212" 
d="M1055 0h-264v817h-369v-817h-266v1067h899v-1067z" />
    <glyph glyph-name="integral" unicode="&#x222b;" horiz-adv-x="1004" 
d="M887 1260h-101q-69 0 -107 -36t-38 -110v-1124q0 -177 -107 -274t-284 -97h-133v225h100q145 0 145 144v1124q0 176 106.5 274.5t285.5 98.5h133v-225z" />
    <glyph glyph-name="ordfeminine" unicode="&#xaa;" horiz-adv-x="930" 
d="M803 606h-211v74q-44 -44 -89 -63t-118 -19q-140 0 -215 78q-72 72 -72 188q0 108 74.5 178t216.5 70h199v41q0 70 -36.5 101.5t-121.5 31.5q-40 0 -68.5 -7t-49.5 -21.5t-44 -40.5l-137 133q62 68 130 93t179 25q180 0 271.5 -75.5t91.5 -225.5v-561zM588 920v47h-166
q-56 0 -85.5 -26.5t-29.5 -70.5q0 -94 117 -94q45 0 77 8t56 31q31 28 31 105z" />
    <glyph glyph-name="ordmasculine" unicode="&#xba;" horiz-adv-x="946" 
d="M834 1032q0 -121 -21 -195.5t-78 -134.5q-100 -104 -262 -104t-262 104q-55 58 -76.5 133.5t-21.5 196.5q0 122 21 198t77 134q100 104 262 104t262 -104q39 -41 60.5 -87.5t30 -104t8.5 -140.5zM618 1032q0 78 -9.5 129t-37.5 78q-36 37 -98 37t-98 -37
q-28 -28 -37.5 -78.5t-9.5 -128.5q0 -77 9 -126t38 -79q36 -36 98 -36t98 36q28 28 37.5 78t9.5 127z" />
    <glyph glyph-name="Omega" unicode="&#x2126;" horiz-adv-x="1319" 
d="M1198 0h-448v223q73 34 110 90q29 43 41 130.5t12 271.5q0 209 -15 292t-56 130q-70 80 -183 80q-114 0 -184 -80q-27 -32 -41.5 -76t-21 -126.5t-6.5 -219.5q0 -115 5.5 -198t17 -128t30.5 -76q37 -56 110 -90v-223h-448v252h121q-49 52 -74 113q-28 69 -37.5 160.5
t-9.5 203.5q0 160 7 251.5t37.5 176t98.5 154.5q81 79 177.5 119t217.5 40q233 0 394 -159q67 -69 99 -154t39 -176.5t7 -251.5q0 -67 -3.5 -133.5t-14.5 -127.5t-29 -103q-25 -61 -74 -113h121v-252z" />
    <glyph glyph-name="ae" unicode="&#xe6;" horiz-adv-x="1716" 
d="M1620 451h-668q0 -105 62.5 -171.5t171.5 -66.5q85 0 136.5 23.5t104.5 76.5l162 -157q-87 -87 -178 -127.5t-227 -40.5q-245 0 -375 149q-57 -61 -114 -94t-116.5 -44t-144.5 -11q-177 0 -272 96q-88 90 -88 240q0 86 40.5 156.5t122 111.5t201.5 41h252v53
q0 89 -46.5 128.5t-151.5 39.5q-76 0 -118.5 -19t-86.5 -69l-170 166q74 83 161 115t224 32q242 0 350 -116q114 116 303 116q144 0 249.5 -65t160.5 -182.5t55 -262.5v-118zM1358 633q-3 64 -25 115q-22 49 -67.5 79.5t-110.5 30.5q-63 0 -109 -30.5t-69 -79.5
q-22 -55 -25 -115h406zM690 393v58h-211q-71 0 -110 -32t-39 -89q0 -58 38.5 -90.5t114.5 -32.5q59 0 97 10t71 41q39 36 39 135z" />
    <glyph glyph-name="oslash" unicode="&#xf8;" 
d="M1008 535q0 -99 -10.5 -174t-37.5 -134.5t-73 -107.5q-124 -131 -332 -131q-121 0 -213 47l-74 -125h-162l121 207l-2 2q-70 70 -95.5 165.5t-25.5 250.5q0 66 5.5 130.5t19.5 114t37.5 91t58.5 77.5q124 131 330 131q127 0 215 -45l72 123h164l-123 -207l4 -2
q69 -72 95 -166t26 -247zM655 813q-44 27 -100 27q-74 0 -123 -47q-38 -40 -49.5 -101.5t-11.5 -156.5q0 -119 14 -177zM741 535q0 107 -16 174l-268 -455q44 -27 98 -27q76 0 125 47q38 38 49.5 98.5t11.5 162.5z" />
    <glyph glyph-name="questiondown" unicode="&#xbf;" horiz-adv-x="1071" 
d="M637 795h-283v272h283v-272zM936 8q0 -185 -124 -298t-308 -113q-118 0 -216.5 49t-156 142.5t-57.5 217.5q0 123 100 256l152 203q36 49 36 104v41h267v-61q0 -65 -18.5 -112.5t-59.5 -100.5l-152 -195q-59 -79 -59 -137q0 -74 44.5 -121t119.5 -47q78 0 122 48.5
t44 123.5h266z" />
    <glyph glyph-name="exclamdown" unicode="&#xa1;" horiz-adv-x="711" 
d="M459 795h-281v272h281v-272zM483 -391h-329l65 1001h199z" />
    <glyph glyph-name="logicalnot" unicode="&#xac;" 
d="M1018 193h-248v296h-676v248h924v-544z" />
    <glyph glyph-name="radical" unicode="&#x221a;" horiz-adv-x="1221" 
d="M1159 1204h-188l-398 -1204h-215l-352 1067h289l172 -559l293 950h399v-254z" />
    <glyph glyph-name="florin" unicode="&#x192;" horiz-adv-x="874" 
d="M813 1249h-141q-95 0 -111 -96l-59 -340h196v-205h-231l-178 -999h-266l178 999h-138v205h173l63 356q24 128 116.5 217t246.5 89l151 -2v-224z" />
    <glyph glyph-name="approxequal" unicode="&#x2248;" horiz-adv-x="1241" 
d="M1165 805q-95 -95 -170.5 -135.5t-167.5 -40.5q-63 0 -117 15.5t-122 51.5q-95 49 -168 49q-48 0 -85 -16t-91 -70l-168 168q64 64 116 102.5t106 56.5t114 18q112 0 239 -68q54 -27 89.5 -39t76.5 -12q47 0 86.5 17.5t91.5 70.5zM1165 342q-96 -96 -169.5 -136
t-166.5 -40q-63 0 -117 15.5t-122 51.5q-101 52 -166 52q-47 0 -86 -17.5t-92 -70.5l-170 168q98 98 172.5 137t167.5 39q62 0 116 -15.5t121 -52.5q55 -27 92 -38t76 -11q46 0 85.5 17t90.5 69z" />
    <glyph glyph-name="Delta" unicode="&#x2206;" horiz-adv-x="1298" 
d="M1292 0h-1286l533 1458h221zM922 240l-267 788l-274 -788h541z" />
    <glyph glyph-name="guillemotleft" unicode="&#xab;" horiz-adv-x="1286" 
d="M1151 55l-512 508l512 508v-317l-197 -191l197 -190v-318zM580 55l-510 508l510 508v-317l-193 -191l193 -190v-318z" />
    <glyph glyph-name="guillemotright" unicode="&#xbb;" horiz-adv-x="1286" 
d="M1219 563l-512 -508v318l192 190l-192 191v317zM647 563l-510 -508v318l195 190l-195 191v317z" />
    <glyph glyph-name="ellipsis" unicode="&#x2026;" horiz-adv-x="1733" 
d="M1593 0h-288v289h288v-289zM1010 0h-289v289h289v-289zM430 0h-291v289h291v-289z" />
    <glyph glyph-name="nonbreakingspace" unicode="&#xa0;" horiz-adv-x="475" 
 />
    <glyph glyph-name="Agrave" unicode="&#xc0;" horiz-adv-x="1307" 
d="M1296 0h-297l-86 258h-518l-88 -258h-297l531 1458h223zM838 498l-179 530l-184 -530h363zM762 1599h-179l-233 348h281z" />
    <glyph glyph-name="Atilde" unicode="&#xc3;" horiz-adv-x="1307" 
d="M1296 0h-297l-86 258h-518l-88 -258h-297l531 1458h223zM838 498l-179 530l-184 -530h363zM1018 1742q-67 -67 -120 -93.5t-112 -26.5q-40 0 -74.5 10.5t-82.5 36.5q-64 36 -115 36q-32 0 -58.5 -11.5t-62.5 -47.5l-115 117q66 66 118 93.5t112 27.5q47 0 80 -10t77 -37
q61 -37 113 -37q30 0 57.5 11.5t63.5 47.5z" />
    <glyph glyph-name="Otilde" unicode="&#xd5;" horiz-adv-x="1319" 
d="M1198 729q0 -121 -2.5 -191t-16.5 -143.5t-43.5 -134t-82.5 -113.5q-161 -159 -394 -159q-121 0 -217.5 40t-177.5 119q-68 70 -98.5 154.5t-37.5 176t-7 251.5t7 251.5t37.5 176t98.5 154.5q81 79 177.5 119t217.5 40q233 0 394 -159q67 -69 99 -154t39 -176.5t7 -251.5
zM913 729q0 136 -6.5 216t-21 120t-43.5 74q-29 35 -77.5 56.5t-105.5 21.5q-54 0 -103 -21t-81 -57q-29 -34 -43 -73.5t-20 -120t-6 -216.5t6 -216t20 -120t43 -74q67 -77 184 -77q116 0 183 77q29 34 43.5 74.5t21 119.5t6.5 216zM1028 1742q-67 -67 -120 -93.5
t-112 -26.5q-40 0 -74.5 10.5t-82.5 36.5q-64 36 -115 36q-32 0 -58.5 -11.5t-62.5 -47.5l-115 117q66 66 118 93.5t112 27.5q47 0 80 -10t77 -37q61 -37 113 -37q30 0 57.5 11.5t63.5 47.5z" />
    <glyph glyph-name="OE" unicode="&#x152;" horiz-adv-x="1978" 
d="M1868 0h-955v90q-47 -51 -119 -76.5t-143 -25.5q-80 0 -148.5 16.5t-128 51t-110.5 85.5q-52 55 -81.5 117t-42 128.5t-16 143.5t-3.5 199t3.5 199.5t16 143t42.5 129.5t81 116q50 50 110 85t128.5 51.5t148.5 16.5q73 0 143 -24.5t119 -77.5v90h953v-252h-670
q0 -58 0.5 -115t1 -115t0.5 -116h569v-250h-569q0 -104 -0.5 -186t-1.5 -172h672v-252zM913 729q0 136 -6.5 216t-21 120t-43.5 74q-29 35 -77.5 56.5t-105.5 21.5q-54 0 -103 -21t-81 -57q-29 -34 -43 -73.5t-20 -120t-6 -216.5t6 -216t20 -120t43 -74q67 -77 184 -77
q116 0 183 77q29 34 43.5 74.5t21 119.5t6.5 216z" />
    <glyph glyph-name="oe" unicode="&#x153;" horiz-adv-x="1767" 
d="M1671 451h-667q0 -105 62 -171.5t171 -66.5q85 0 135 23.5t105 76.5l163 -157q-87 -87 -178 -127.5t-227 -40.5q-235 0 -356 135q-52 -63 -135.5 -99t-188.5 -36q-206 0 -330 131q-35 36 -58 77t-37.5 92t-20 116.5t-5.5 130.5q0 66 5.5 130.5t19.5 114t37.5 91
t58.5 77.5q124 131 330 131q71 0 135.5 -18t112 -49t82.5 -74q36 44 87 76.5t108.5 48.5t125.5 16q144 0 249.5 -65t160.5 -182.5t55 -262.5v-118zM1407 633q-3 69 -23 115q-22 49 -67.5 79.5t-110.5 30.5q-64 0 -110.5 -30t-69.5 -80q-19 -47 -22 -115h403zM741 535
q0 101 -11.5 160.5t-49.5 97.5q-49 47 -125 47q-74 0 -123 -47q-38 -40 -49.5 -101.5t-11.5 -156.5q0 -96 11.5 -158.5t49.5 -102.5q49 -47 123 -47q76 0 125 47q38 38 49.5 98.5t11.5 162.5z" />
    <glyph glyph-name="emdash" unicode="&#x2013;" 
d="M1010 461h-908v248h908v-248z" />
    <glyph glyph-name="endash" unicode="&#x2014;" horiz-adv-x="2103" 
d="M1982 463h-1861v256h1861v-256z" />
    <glyph glyph-name="quotedblleft" unicode="&#x201c;" horiz-adv-x="987" 
d="M848 1206h-279v252l279 215v-467zM416 1206h-277v252l277 215v-467z" />
    <glyph glyph-name="quotedblright" unicode="&#x201d;" horiz-adv-x="987" 
d="M848 1204l-279 -211v465h279v-254zM416 1204l-277 -211v465h277v-254z" />
    <glyph glyph-name="quoteleft" unicode="&#x2018;" horiz-adv-x="559" 
d="M418 1206h-279v252l279 215v-467z" />
    <glyph glyph-name="quoteright" unicode="&#x2019;" horiz-adv-x="559" 
d="M418 1204l-279 -211v465h279v-254z" />
    <glyph glyph-name="divide" unicode="&#xf7;" 
d="M690 866h-266v267h266v-267zM1018 461h-924v248h924v-248zM690 37h-266v266h266v-266z" />
    <glyph glyph-name="lozenge" unicode="&#x25ca;" horiz-adv-x="1303" 
d="M1190 698l-539 -751l-538 751l538 750zM891 698l-240 336l-239 -336l239 -338z" />
    <glyph glyph-name="ydieresis" unicode="&#xff;" horiz-adv-x="1012" 
d="M1004 1067l-457 -1239q-36 -93 -80 -137q-41 -42 -99.5 -62t-129.5 -20h-105v239h62q56 0 85 20.5t48 76.5l45 131l-365 991h281l221 -659l213 659h281zM840 1241h-227v256h227v-256zM387 1241h-227v256h227v-256z" />
    <glyph glyph-name="Ydieresis" unicode="&#x178;" horiz-adv-x="1171" 
d="M1165 1458l-438 -860v-598h-283v598l-438 860h309l273 -588l268 588h309zM924 1603h-227v256h227v-256zM471 1603h-227v256h227v-256z" />
    <glyph glyph-name="fraction" unicode="&#x2044;" horiz-adv-x="426" 
d="M662 1458l-691 -1458h-207l691 1458h207z" />
    <glyph glyph-name="currency" unicode="&#xa4;" horiz-adv-x="1370" 
d="M1249 197l-174 -177l-151 150q-113 -66 -240 -66q-125 0 -238 66l-151 -150l-176 177l151 149q-67 114 -67 240t67 239l-151 150l176 176l151 -150q113 66 238 66q67 0 127.5 -17.5t112.5 -48.5l151 150l174 -176l-149 -150q65 -109 65 -239q0 -129 -65 -240zM926 586
q0 100 -70.5 169.5t-171.5 69.5q-100 0 -170 -70t-70 -169q0 -98 71 -169t169 -71q99 0 170.5 70.5t71.5 169.5z" />
    <glyph glyph-name="guilsinglleft" unicode="&#x2039;" horiz-adv-x="717" 
d="M580 55l-510 508l510 508v-317l-193 -191l193 -190v-318z" />
    <glyph glyph-name="guilsinglright" unicode="&#x203a;" horiz-adv-x="717" 
d="M647 563l-510 -508v318l195 190l-195 191v317z" />
    <glyph glyph-name="fi" unicode="&#xf001;" horiz-adv-x="1233" 
d="M1090 1249h-275v217h275v-217zM1085 0h-266v1036h266v-1036zM637 834h-197v-834h-266v834h-111v202h111v133q0 81 34 150.5t104 112.5t173 43h152v-226h-102q-95 0 -95 -96v-117h197v-202z" />
    <glyph glyph-name="fl" unicode="&#xf002;" horiz-adv-x="1327" 
d="M1278 0h-152q-152 0 -231.5 89.5t-79.5 215.5v1153h266v-1136q0 -97 95 -97h102v-225zM637 834h-197v-834h-266v834h-111v202h111v133q0 81 34 150.5t104 112.5t173 43h152v-226h-102q-95 0 -95 -96v-117h197v-202z" />
    <glyph glyph-name="daggerdbl" unicode="&#x2021;" horiz-adv-x="1186" 
d="M1069 -12h-344v-379h-266v379h-342v239h342v613h-342v239h342v379h266v-379h344v-239h-344v-613h344v-239z" />
    <glyph glyph-name="periodcentered" unicode="&#x2219;" horiz-adv-x="584" 
d="M444 434h-305v303h305v-303z" />
    <glyph glyph-name="quotesinglbase" unicode="&#x201a;" horiz-adv-x="555" 
d="M418 0l-279 -213v467h279v-254z" />
    <glyph glyph-name="quotedblbase" unicode="&#x201e;" horiz-adv-x="993" 
d="M848 0l-279 -213v467h279v-254zM416 0l-277 -213v467h277v-254z" />
    <glyph glyph-name="perthousand" unicode="&#x2030;" horiz-adv-x="2480" 
d="M2372 268q0 -133 -85.5 -206.5t-211.5 -73.5q-127 0 -212 74t-85 206v203q0 132 84.5 206.5t212.5 74.5q80 0 148.5 -33t108.5 -96t40 -152v-203zM1630 268q0 -133 -85.5 -206.5t-211.5 -73.5q-127 0 -212 74t-85 206v203q0 132 84.5 206.5t212.5 74.5q81 0 149 -32.5
t108 -96t40 -152.5v-203zM1319 1458l-690 -1458h-209l690 1458h209zM700 987q0 -133 -85.5 -206.5t-211.5 -73.5q-127 0 -212 74t-85 206v203q0 132 85 206t212 74q126 0 211.5 -73.5t85.5 -206.5v-203zM2179 274v189q0 57 -27 87t-77 30q-105 0 -105 -117v-187
q0 -116 105 -116q104 0 104 114zM1438 276v187q0 57 -27.5 87t-77.5 30q-104 0 -104 -117v-187q0 -116 104 -116q50 0 77.5 30t27.5 86zM508 995v187q0 57 -27 86.5t-78 29.5q-104 0 -104 -116v-187q0 -56 27.5 -86t76.5 -30q50 0 77.5 30t27.5 86z" />
    <glyph glyph-name="Acircumflex" unicode="&#xc2;" horiz-adv-x="1307" 
d="M1296 0h-297l-86 258h-518l-88 -258h-297l531 1458h223zM838 498l-179 530l-184 -530h363zM1026 1599h-207l-170 186l-170 -186h-207l271 346h212z" />
    <glyph glyph-name="Ecircumflex" unicode="&#xca;" horiz-adv-x="1239" 
d="M1130 0h-960v1458h960v-254h-675v-342h575v-254h-575v-354h675v-254zM1012 1599h-207l-170 186l-170 -186h-207l271 346h212z" />
    <glyph glyph-name="Aacute" unicode="&#xc1;" horiz-adv-x="1307" 
d="M1296 0h-297l-86 258h-518l-88 -258h-297l531 1458h223zM838 498l-179 530l-184 -530h363zM948 1947l-233 -348h-179l131 348h281z" />
    <glyph glyph-name="Edieresis" unicode="&#xcb;" horiz-adv-x="1239" 
d="M1130 0h-960v1458h960v-254h-675v-342h575v-254h-575v-354h675v-254zM975 1603h-227v256h227v-256zM522 1603h-227v256h227v-256z" />
    <glyph glyph-name="Egrave" unicode="&#xc8;" horiz-adv-x="1239" 
d="M1130 0h-960v1458h960v-254h-675v-342h575v-254h-575v-354h675v-254zM748 1599h-179l-233 348h281z" />
    <glyph glyph-name="Iacute" unicode="&#xcd;" horiz-adv-x="625" 
d="M455 0h-285v1458h285v-1458zM563 1947l-233 -348h-179l131 348h281z" />
    <glyph glyph-name="Icircumflex" unicode="&#xce;" horiz-adv-x="625" 
d="M455 0h-285v1458h285v-1458zM686 1599h-207l-170 186l-170 -186h-207l271 346h212z" />
    <glyph glyph-name="Idieresis" unicode="&#xcf;" horiz-adv-x="625" 
d="M455 0h-285v1458h285v-1458zM653 1603h-227v256h227v-256zM200 1603h-227v256h227v-256z" />
    <glyph glyph-name="Igrave" unicode="&#xcc;" horiz-adv-x="625" 
d="M455 0h-285v1458h285v-1458zM480 1599h-179l-233 348h281z" />
    <glyph glyph-name="Oacute" unicode="&#xd3;" horiz-adv-x="1319" 
d="M1198 729q0 -121 -2.5 -191t-16.5 -143.5t-43.5 -134t-82.5 -113.5q-161 -159 -394 -159q-121 0 -217.5 40t-177.5 119q-68 70 -98.5 154.5t-37.5 176t-7 251.5t7 251.5t37.5 176t98.5 154.5q81 79 177.5 119t217.5 40q233 0 394 -159q67 -69 99 -154t39 -176.5t7 -251.5
zM913 729q0 136 -6.5 216t-21 120t-43.5 74q-29 35 -77.5 56.5t-105.5 21.5q-54 0 -103 -21t-81 -57q-29 -34 -43 -73.5t-20 -120t-6 -216.5t6 -216t20 -120t43 -74q67 -77 184 -77q116 0 183 77q29 34 43.5 74.5t21 119.5t6.5 216zM958 1947l-233 -348h-179l131 348h281z
" />
    <glyph glyph-name="Ocircumflex" unicode="&#xd4;" horiz-adv-x="1319" 
d="M1198 729q0 -121 -2.5 -191t-16.5 -143.5t-43.5 -134t-82.5 -113.5q-161 -159 -394 -159q-121 0 -217.5 40t-177.5 119q-68 70 -98.5 154.5t-37.5 176t-7 251.5t7 251.5t37.5 176t98.5 154.5q81 79 177.5 119t217.5 40q233 0 394 -159q67 -69 99 -154t39 -176.5t7 -251.5
zM913 729q0 136 -6.5 216t-21 120t-43.5 74q-29 35 -77.5 56.5t-105.5 21.5q-54 0 -103 -21t-81 -57q-29 -34 -43 -73.5t-20 -120t-6 -216.5t6 -216t20 -120t43 -74q67 -77 184 -77q116 0 183 77q29 34 43.5 74.5t21 119.5t6.5 216zM1036 1599h-207l-170 186l-170 -186h-207
l271 346h212z" />
    <glyph glyph-name="Ograve" unicode="&#xd2;" horiz-adv-x="1319" 
d="M1198 729q0 -121 -2.5 -191t-16.5 -143.5t-43.5 -134t-82.5 -113.5q-161 -159 -394 -159q-121 0 -217.5 40t-177.5 119q-68 70 -98.5 154.5t-37.5 176t-7 251.5t7 251.5t37.5 176t98.5 154.5q81 79 177.5 119t217.5 40q233 0 394 -159q67 -69 99 -154t39 -176.5t7 -251.5
zM913 729q0 136 -6.5 216t-21 120t-43.5 74q-29 35 -77.5 56.5t-105.5 21.5q-54 0 -103 -21t-81 -57q-29 -34 -43 -73.5t-20 -120t-6 -216.5t6 -216t20 -120t43 -74q67 -77 184 -77q116 0 183 77q29 34 43.5 74.5t21 119.5t6.5 216zM772 1599h-179l-233 348h281z" />
    <glyph glyph-name="Uacute" unicode="&#xda;" horiz-adv-x="1368" 
d="M1221 500q0 -151 -71 -268t-193.5 -180.5t-272.5 -63.5t-272.5 63.5t-193.5 180.5t-71 268v958h285v-948q0 -124 68 -196t184 -72q117 0 185.5 71.5t68.5 196.5v948h283v-958zM983 1947l-233 -348h-179l131 348h281z" />
    <glyph glyph-name="Ucircumflex" unicode="&#xdb;" horiz-adv-x="1368" 
d="M1221 500q0 -151 -71 -268t-193.5 -180.5t-272.5 -63.5t-272.5 63.5t-193.5 180.5t-71 268v958h285v-948q0 -124 68 -196t184 -72q117 0 185.5 71.5t68.5 196.5v948h283v-958zM1061 1599h-207l-170 186l-170 -186h-207l271 346h212z" />
    <glyph glyph-name="Ugrave" unicode="&#xd9;" horiz-adv-x="1368" 
d="M1221 500q0 -151 -71 -268t-193.5 -180.5t-272.5 -63.5t-272.5 63.5t-193.5 180.5t-71 268v958h285v-948q0 -124 68 -196t184 -72q117 0 185.5 71.5t68.5 196.5v948h283v-958zM797 1599h-179l-233 348h281z" />
    <glyph glyph-name="dotlessi" unicode="&#x131;" horiz-adv-x="563" 
d="M416 0h-266v1067h266v-1067z" />
    <glyph glyph-name="circumflex" unicode="&#x2c6;" horiz-adv-x="1024" 
d="M889 1237h-207l-170 186l-170 -186h-207l271 346h212z" />
    <glyph glyph-name="tilde" unicode="&#x2dc;" horiz-adv-x="1024" 
d="M881 1380q-67 -67 -120 -93.5t-112 -26.5q-40 0 -74.5 10.5t-82.5 36.5q-64 36 -115 36q-32 0 -58.5 -11.5t-62.5 -47.5l-115 117q66 66 118 93.5t112 27.5q47 0 80 -10t77 -37q61 -37 113 -37q30 0 57.5 11.5t63.5 47.5z" />
    <glyph glyph-name="macron" unicode="&#xaf;" horiz-adv-x="1024" 
d="M836 1290h-648v178h648v-178z" />
    <glyph glyph-name="breve" unicode="&#x2d8;" horiz-adv-x="1024" 
d="M848 1520q-7 -158 -99 -234t-235 -76t-237 77t-101 233h180q9 -63 52 -93t106 -30q62 0 105.5 30.5t50.5 92.5h178z" />
    <glyph glyph-name="dotaccent" unicode="&#x2d9;" horiz-adv-x="1024" 
d="M649 1245h-274v217h274v-217z" />
    <glyph glyph-name="ring" unicode="&#x2da;" horiz-adv-x="1024" 
d="M780 1464q0 -110 -78 -189t-190 -79q-110 0 -189 79t-79 189q0 111 79 190t189 79q111 0 189.5 -78.5t78.5 -190.5zM631 1464q0 51 -34 85t-85 34t-85 -34t-34 -85q0 -50 34.5 -85.5t84.5 -35.5t84.5 35.5t34.5 85.5z" />
    <glyph glyph-name="cedilla" unicode="&#xb8;" horiz-adv-x="1024" 
d="M666 -123l-91 -299h-247l141 299h197z" />
    <glyph glyph-name="hungarumlaut" unicode="&#x2dd;" horiz-adv-x="1024" 
d="M952 1585l-235 -348h-176l129 348h282zM528 1585l-233 -348h-178l129 348h282z" />
    <glyph glyph-name="ogonek" unicode="&#x2db;" horiz-adv-x="1024" 
d="M684 -422h-248l-90 299h199z" />
    <glyph glyph-name="caron" unicode="&#x2c7;" horiz-adv-x="1024" 
d="M889 1583l-271 -346h-212l-271 346h207l170 -184l170 184h207z" />
    </font>
</defs>
</svg>
